<?xml version="1.0" standalone="no"?>
<!DOCTYPE svg PUBLIC "-//W3C//DTD SVG 20010904//EN"
 "http://www.w3.org/TR/2001/REC-SVG-20010904/DTD/svg10.dtd">
<svg version="1.0" xmlns="http://www.w3.org/2000/svg"
 width="1280.000000pt" height="1280.000000pt" viewBox="0 0 1280.000000 1280.000000"
 preserveAspectRatio="xMidYMid meet">
<metadata>
Created by potrace 1.14, written by Peter Selinger 2001-2017
</metadata>
<g transform="translate(0.000000,1280.000000) scale(0.100000,-0.100000)"
fill="#000000" stroke="none">
<path d="M6215 12793 c-16 -2 -66 -8 -110 -15 -44 -6 -89 -12 -100 -13 -11 -1
-27 -5 -35 -8 -8 -3 -42 -10 -75 -17 -119 -23 -335 -103 -480 -177 -51 -26
-212 -120 -230 -135 -5 -5 -21 -17 -34 -28 -13 -11 -27 -20 -30 -20 -3 0 -20
-13 -37 -28 -17 -15 -54 -47 -83 -71 -71 -61 -169 -163 -231 -241 -28 -36 -57
-72 -63 -80 -7 -8 -30 -43 -52 -78 -22 -35 -49 -78 -60 -95 -46 -73 -173 -377
-158 -377 3 0 1 -6 -5 -12 -9 -12 -31 -100 -38 -153 -1 -11 -3 -20 -5 -20 -1
0 -3 -16 -4 -35 -2 -19 -4 -35 -5 -35 -4 0 -10 -44 -15 -110 -10 -118 -10
-145 -3 -145 4 0 4 -10 -1 -22 -4 -13 -6 -32 -4 -43 3 -11 5 -53 6 -92 1 -40
5 -73 9 -73 4 0 7 -8 6 -17 0 -19 9 -84 17 -120 3 -13 7 -31 9 -41 12 -54 30
-115 52 -176 14 -41 20 -72 15 -76 -6 -3 -36 -4 -68 -3 -32 2 -62 3 -68 3
-187 -4 -295 -3 -295 3 0 5 -5 5 -12 1 -16 -10 -238 -11 -238 -2 0 4 -8 4 -17
1 -15 -6 -199 -8 -213 -3 -3 2 -9 1 -15 0 -29 -6 -205 -4 -205 3 0 5 -5 5 -11
1 -6 -3 -57 -6 -113 -5 -55 1 -108 2 -116 2 -8 0 -60 0 -115 0 -55 0 -107 0
-115 0 -8 0 -55 0 -105 0 -49 1 -97 0 -105 0 -60 -2 -205 1 -211 5 -4 2 -10 0
-13 -5 -4 -5 -19 -6 -34 -2 -15 3 -44 4 -64 1 -30 -4 -36 -8 -28 -20 5 -8 10
-12 10 -9 0 3 26 -19 58 -50 32 -31 112 -105 177 -166 65 -60 135 -126 155
-145 20 -19 66 -62 101 -94 35 -33 120 -112 189 -177 69 -64 141 -131 160
-149 31 -29 97 -90 333 -310 38 -36 92 -86 120 -113 28 -26 56 -46 62 -44 5 3
18 0 28 -5 11 -5 17 -5 17 1 0 7 8 7 23 2 12 -5 32 -5 45 0 13 5 22 5 22 -2 0
-6 6 -6 18 0 13 7 22 7 29 0 8 -8 13 -7 17 0 5 8 13 8 27 1 12 -7 19 -7 19 -1
0 7 8 7 23 2 12 -5 31 -5 42 -1 11 4 28 3 38 -2 11 -5 17 -5 17 1 0 7 8 7 23
2 12 -5 32 -5 45 0 13 5 22 5 22 -2 0 -6 6 -6 18 0 13 7 22 7 29 0 8 -8 13 -7
17 0 5 8 13 8 27 1 13 -8 19 -7 19 0 0 8 6 8 20 0 13 -7 20 -7 20 -1 0 7 8 7
23 2 12 -5 32 -5 45 0 13 5 22 5 22 -2 0 -6 6 -6 18 0 13 7 22 7 29 0 8 -8 13
-7 17 0 5 8 13 8 27 1 13 -8 19 -7 19 0 0 8 6 8 20 0 13 -7 20 -7 20 -1 0 7 8
7 23 2 12 -5 32 -5 45 0 13 5 22 5 22 -2 0 -6 6 -6 18 0 13 7 22 7 29 0 8 -8
13 -7 17 0 5 8 13 8 27 1 13 -8 19 -7 19 0 0 8 6 8 20 0 13 -7 20 -7 20 -1 0
7 8 7 23 2 12 -5 32 -5 45 0 13 5 22 5 22 -2 0 -6 7 -6 19 1 13 7 22 7 26 0 4
-7 12 -7 25 0 13 7 21 7 25 0 5 -8 11 -8 20 0 10 8 15 8 20 0 5 -7 11 -8 19
-1 7 6 17 6 26 1 8 -5 21 -5 31 1 11 6 20 5 24 -1 4 -6 13 -7 23 -1 11 6 24 6
35 0 9 -6 17 -6 17 -2 0 4 11 8 25 8 14 0 25 -4 25 -8 0 -4 9 -3 19 3 14 7 22
7 26 0 4 -7 11 -7 18 -2 7 5 21 6 32 2 11 -4 30 -4 43 1 14 5 22 5 22 -2 0 -6
7 -6 20 1 14 8 20 8 20 0 0 -7 6 -8 18 -1 11 6 24 6 35 0 11 -7 17 -7 17 0 0
7 8 7 25 1 15 -6 26 -6 30 0 4 7 13 6 26 0 12 -7 19 -7 19 -1 0 7 9 7 25 1 14
-5 25 -6 25 -2 0 9 53 7 68 -2 5 -3 9 -1443 9 -3590 0 -2820 -3 -3584 -12
-3578 -13 7 -106 88 -175 152 -21 19 -49 44 -62 54 -18 16 -142 124 -194 171
-6 6 -44 39 -85 75 -41 36 -89 79 -106 96 -18 18 -33 30 -33 27 0 -2 -13 8
-29 24 -15 15 -41 39 -57 53 -96 83 -272 238 -290 255 -11 11 -49 45 -84 75
-35 30 -75 66 -89 79 -14 13 -48 42 -75 65 -27 22 -68 60 -92 82 -24 23 -44
39 -44 37 0 -3 -8 4 -18 14 -9 11 -55 53 -102 94 -46 41 -98 86 -115 101 -85
75 -101 88 -107 88 -5 0 -8 6 -8 14 0 8 -8 17 -17 21 -10 3 -41 27 -69 53 -28
26 -77 70 -109 97 -31 28 -74 66 -95 85 -21 19 -55 49 -77 67 -21 18 -57 49
-80 70 -22 21 -69 63 -104 93 -35 30 -76 66 -90 80 -15 14 -47 42 -71 62 -23
20 -59 51 -78 68 -19 18 -64 57 -100 88 -35 32 -74 66 -86 77 -24 22 -127 113
-160 142 -12 10 -50 44 -85 75 -35 31 -73 65 -85 75 -11 10 -49 43 -84 73 -34
30 -82 73 -106 95 -24 22 -52 47 -62 55 -11 8 -52 44 -91 79 -39 35 -79 71
-89 80 -95 82 -174 152 -259 228 -32 29 -69 62 -83 73 -14 12 -41 36 -60 53
-19 18 -70 63 -113 101 l-77 69 2 -1304 3 -1304 107 0 c65 0 108 4 108 10 0 7
3 7 8 0 9 -13 135 -13 144 0 5 6 8 7 8 0 0 -14 442 -14 452 0 5 7 8 7 8 0 0
-6 23 -10 54 -9 45 1 59 -3 80 -23 14 -13 26 -22 26 -20 0 2 27 -21 60 -52 33
-31 75 -68 93 -83 17 -15 52 -46 76 -68 24 -22 45 -40 46 -40 2 0 19 -15 37
-33 19 -17 61 -55 94 -84 32 -28 79 -68 103 -90 25 -21 64 -57 89 -80 24 -24
47 -43 51 -43 4 0 14 -8 22 -17 9 -10 49 -47 89 -83 93 -81 122 -107 164 -145
18 -16 62 -55 97 -85 35 -30 77 -69 94 -85 18 -17 47 -42 66 -57 19 -14 52
-43 75 -65 23 -21 64 -58 93 -83 29 -25 67 -58 85 -75 18 -16 63 -57 101 -90
37 -33 76 -67 85 -75 9 -8 48 -42 85 -75 38 -33 83 -73 101 -90 18 -16 59 -52
90 -80 32 -27 71 -62 86 -76 16 -15 49 -44 74 -65 25 -22 61 -52 78 -69 39
-36 75 -68 176 -155 41 -36 84 -74 96 -85 26 -23 47 -42 129 -115 109 -96 129
-114 205 -180 41 -36 88 -78 106 -95 17 -16 49 -44 70 -62 22 -17 55 -46 74
-65 20 -18 55 -50 79 -71 l45 -37 686 0 687 0 30 28 c55 51 139 127 207 187
78 68 84 74 192 172 43 39 88 80 100 90 41 35 168 148 189 168 12 11 41 38 66
59 70 62 199 178 236 213 19 17 59 53 90 80 30 26 70 62 87 78 18 17 62 55 97
86 35 31 76 67 90 80 49 45 104 95 239 214 74 66 140 125 146 130 6 6 46 42
88 80 43 39 90 81 105 95 15 14 56 50 91 80 34 30 75 66 90 80 23 21 99 90
216 195 12 11 33 29 45 40 13 12 67 59 119 105 52 46 103 91 113 100 10 8 34
29 52 45 18 17 59 53 90 80 32 28 75 66 96 85 21 19 56 51 79 70 23 19 47 40
54 46 14 13 184 163 286 253 83 72 239 229 283 282 15 19 43 54 62 79 19 25
39 50 44 55 8 12 67 97 89 130 6 11 15 27 19 35 4 8 9 17 12 20 38 33 237 480
215 480 -4 0 -2 6 4 12 6 7 11 16 11 21 1 4 1 8 2 10 0 1 2 13 4 27 6 32 13
65 15 65 1 0 3 16 6 35 2 19 6 46 9 58 3 13 8 43 11 65 3 23 7 53 10 67 25
158 25 474 -1 594 -9 42 -17 92 -19 114 0 12 -5 22 -10 22 -5 0 -7 3 -4 6 4 3
2 20 -4 37 -5 18 -11 41 -13 52 -1 11 -3 20 -4 20 -2 0 -4 7 -6 15 -8 40 -69
209 -97 268 -18 37 -32 69 -33 72 -5 18 -31 68 -43 83 -9 9 -12 17 -9 17 4 0
-13 30 -36 68 -24 37 -46 75 -50 85 -3 9 -11 17 -17 17 -5 0 -10 5 -10 11 0
10 -83 125 -140 194 -50 62 -288 292 -345 335 -33 25 -62 48 -65 51 -3 3 -12
9 -20 12 -8 4 -42 28 -75 53 -33 25 -75 54 -92 66 -18 11 -33 24 -33 29 0 4
38 66 84 136 46 70 104 164 130 209 44 78 140 294 130 294 -2 0 1 10 8 23 6
12 13 27 14 34 1 7 9 34 17 60 8 26 19 62 23 78 4 17 8 35 10 40 11 40 21 111
18 117 -3 5 -1 8 3 8 5 0 9 10 10 23 0 12 4 47 8 77 4 30 9 87 11 125 1 39 3
72 4 75 5 13 5 37 -1 55 -3 10 -3 34 1 52 5 18 5 33 1 33 -3 0 -6 26 -7 58 -1
62 -10 149 -25 227 -5 28 -12 61 -14 75 -9 49 -18 83 -27 110 -3 8 -14 44 -24
80 -9 36 -22 71 -27 78 -5 6 -7 12 -3 12 4 0 -1 14 -10 31 -8 17 -17 40 -19
51 -10 49 -210 417 -245 448 -12 11 -70 89 -70 94 0 3 -12 19 -27 36 -16 17
-41 45 -57 63 -62 70 -136 144 -191 192 -31 28 -64 57 -73 66 -48 45 -266 199
-283 199 -5 0 -9 5 -9 12 0 6 -3 8 -7 5 -3 -4 -13 -1 -22 7 -19 17 -225 123
-291 150 -25 10 -58 24 -75 31 -39 17 -160 57 -265 86 -54 15 -50 14 -130 29
-36 7 -72 15 -80 18 -8 2 -31 6 -50 8 -19 1 -55 7 -80 12 -25 5 -56 8 -69 7
-27 -2 -27 -4 18 139 17 55 33 111 36 125 3 14 7 37 11 51 21 92 45 369 34
400 -7 21 -7 41 1 46 5 3 6 10 3 16 -4 5 -8 26 -10 46 -4 46 -15 131 -20 157
-2 11 -6 31 -8 45 -14 93 -100 353 -130 389 -6 8 -10 16 -8 18 4 5 -55 118
-93 178 -19 30 -35 59 -35 65 0 5 -5 10 -10 10 -6 0 -14 8 -17 18 -6 14 -36
57 -78 109 -52 64 -204 219 -257 263 -38 30 -78 63 -90 74 -55 45 -241 160
-338 208 -150 75 -372 150 -510 172 -8 2 -31 6 -50 11 -19 4 -48 9 -65 11 -16
3 -43 6 -60 9 -38 6 -410 13 -450 8z m295 -1250 c25 -4 52 -8 60 -9 8 0 35 -8
60 -17 141 -48 247 -122 343 -240 36 -44 95 -156 102 -194 2 -10 4 -20 6 -23
1 -3 3 -9 4 -15 2 -5 4 -12 5 -15 23 -61 16 -218 -15 -320 -1 -3 -5 -18 -10
-35 -4 -16 -11 -32 -14 -35 -3 -3 -14 -22 -24 -43 -28 -62 -74 -115 -179 -211
-15 -13 -37 -27 -48 -31 -11 -3 -20 -10 -20 -15 0 -4 -8 -10 -17 -13 -10 -3
-49 -19 -88 -35 -38 -16 -86 -32 -105 -35 -118 -22 -190 -27 -190 -15 0 5 -7
5 -16 0 -45 -25 -320 65 -382 125 -7 7 -17 13 -21 13 -12 0 -121 112 -150 154
-35 51 -76 132 -86 171 -5 17 -9 35 -11 40 -16 55 -26 210 -15 230 3 6 6 19 7
30 3 40 35 130 69 191 48 89 119 167 203 226 71 49 212 109 259 110 5 0 13 3
18 7 6 4 37 8 70 10 33 2 61 4 63 6 3 3 64 -3 122 -12z m650 -2584 c0 7 9 7
23 2 12 -5 32 -5 45 0 14 5 22 5 22 -2 0 -6 7 -6 19 1 14 7 22 7 27 -1 4 -7 9
-8 17 0 7 7 16 7 29 0 12 -7 18 -6 18 1 0 8 6 8 20 0 13 -7 20 -7 20 -1 0 7 9
7 23 2 12 -5 32 -5 45 0 13 5 22 5 22 -1 0 -5 12 -5 30 0 19 5 28 5 25 -1 -4
-5 4 -5 19 1 16 6 26 6 26 0 0 -6 9 -6 23 -1 12 4 33 5 47 1 14 -4 33 -3 43 2
11 6 17 5 17 -2 0 -8 6 -8 20 0 14 8 20 8 20 0 0 -8 6 -8 20 0 14 8 20 8 20 0
0 -8 6 -8 20 0 14 8 20 8 20 0 0 -8 6 -8 20 0 14 8 20 8 20 0 0 -8 6 -8 20 0
14 8 20 8 20 0 0 -8 6 -8 20 0 14 8 20 8 20 0 0 -7 6 -8 17 -1 11 6 24 6 35 0
12 -6 18 -6 18 0 0 7 8 7 24 1 15 -5 27 -5 35 3 6 6 11 7 11 1 0 -5 17 -10 38
-11 45 -2 147 -16 190 -27 12 -3 30 -8 40 -10 39 -9 197 -68 207 -77 5 -5 17
-9 27 -9 10 0 18 -4 18 -10 0 -5 4 -10 10 -10 5 0 44 -21 87 -47 74 -45 192
-153 241 -220 46 -61 92 -137 92 -150 0 -7 5 -13 10 -13 6 0 10 -9 10 -19 0
-11 4 -23 10 -26 8 -5 27 -61 31 -90 0 -5 4 -14 9 -20 11 -14 24 -77 35 -170
25 -219 -36 -452 -168 -643 -57 -83 -191 -222 -213 -222 -8 0 -14 -4 -14 -9 0
-14 -148 -87 -210 -104 -30 -9 -75 -19 -100 -23 -73 -12 -1353 -13 -1368 -1
-9 7 -9 13 -2 22 7 9 7 15 1 19 -6 4 -6 18 -1 35 4 15 4 34 0 42 -5 7 -4 21 1
31 6 12 6 18 0 18 -7 0 -7 8 -2 23 5 13 5 30 1 37 -5 8 -5 21 0 29 5 9 4 23
-1 33 -5 9 -6 19 -1 22 9 6 8 47 -2 64 -4 6 -2 21 4 32 7 12 7 27 2 38 -9 17
-8 49 2 59 3 3 1 14 -4 24 -6 10 -7 20 -2 23 9 5 8 47 -1 63 -4 7 -4 14 1 17
9 6 9 47 -2 64 -4 6 -2 21 4 32 6 11 7 28 3 38 -10 21 -10 43 0 59 4 6 3 14
-2 17 -6 4 -6 18 -1 35 4 15 4 34 0 42 -5 7 -4 21 1 31 6 12 6 18 0 18 -7 0
-7 8 -2 23 5 13 5 30 1 37 -5 8 -5 21 0 29 5 9 4 23 -1 33 -5 9 -6 19 -1 22 9
6 8 47 -2 64 -4 6 -2 21 4 32 6 11 7 28 3 38 -10 21 -10 43 0 59 4 6 3 14 -2
17 -6 4 -6 18 -1 35 4 15 4 34 0 42 -5 7 -4 21 1 31 6 12 6 18 0 18 -7 0 -7 8
-2 23 5 13 5 30 1 37 -5 8 -5 21 0 29 5 9 4 23 -1 33 -5 9 -6 19 -1 22 9 6 8
47 -2 64 -4 6 -2 21 4 32 7 14 8 26 0 39 -7 14 -7 22 0 26 8 5 7 11 -1 21 -8
10 -8 18 -1 27 16 19 16 21 3 45 -6 12 -7 22 -2 22 5 0 7 9 4 19 -4 14 1 20
19 23 12 2 31 0 41 -4 10 -5 17 -5 17 1z m58 -3203 c6 -3 13 -2 16 3 4 6 18 6
36 1 17 -5 30 -6 30 -2 0 4 11 7 25 7 14 0 25 -3 25 -7 0 -4 11 -3 25 2 15 6
26 6 30 -1 4 -6 13 -6 23 0 10 6 23 6 34 0 12 -6 18 -6 18 0 0 6 11 6 30 1 17
-5 30 -6 30 -2 0 4 11 7 25 7 14 0 25 -3 25 -7 0 -4 11 -3 25 2 15 6 26 6 30
-1 4 -6 13 -6 23 0 9 5 26 5 40 0 13 -5 21 -6 19 -1 -3 4 10 7 29 7 19 0 34
-3 34 -7 0 -4 8 -4 17 -1 21 8 66 9 79 0 5 -3 16 -2 24 3 8 5 22 5 32 -1 12
-6 18 -6 18 0 0 6 11 6 30 1 17 -5 30 -6 30 -2 0 4 11 7 25 7 14 0 25 -3 25
-7 0 -4 11 -3 25 2 15 6 26 6 30 -1 4 -6 13 -6 23 0 10 6 23 6 34 0 10 -5 18
-6 18 -2 0 4 11 8 25 8 14 0 25 -4 25 -8 0 -4 8 -4 17 2 11 6 24 6 35 0 10 -6
19 -5 23 1 4 6 15 6 31 0 14 -6 23 -6 20 -1 -4 5 9 6 29 1 19 -4 35 -5 35 -1
0 3 11 6 25 6 14 0 25 -3 25 -7 0 -4 11 -3 24 2 13 5 27 6 30 3 3 -3 54 -7
113 -8 166 -5 296 -27 388 -66 17 -7 35 -13 40 -14 40 -4 256 -131 326 -192
72 -61 179 -177 179 -193 0 -5 4 -10 8 -10 5 0 15 -12 23 -27 8 -16 17 -30 20
-33 3 -3 13 -18 21 -35 9 -16 34 -64 56 -107 22 -42 43 -86 47 -99 4 -12 14
-38 23 -58 19 -44 18 -40 37 -126 20 -89 15 -198 -16 -355 -16 -75 -15 -72
-26 -100 -6 -14 -14 -40 -17 -57 -4 -18 -12 -35 -17 -38 -5 -4 -9 -15 -9 -26
0 -10 -4 -19 -10 -19 -5 0 -10 -6 -10 -12 0 -7 -16 -35 -35 -63 -20 -27 -43
-61 -53 -75 -20 -28 -149 -159 -208 -209 -21 -19 -73 -64 -114 -101 -41 -37
-93 -82 -115 -101 -22 -18 -55 -48 -72 -66 -18 -17 -33 -30 -33 -28 0 2 -13
-8 -28 -23 -16 -15 -44 -40 -63 -57 -19 -16 -55 -48 -79 -69 -57 -50 -178
-156 -199 -176 -9 -8 -50 -44 -91 -80 -41 -36 -77 -68 -80 -71 -4 -4 -208
-185 -294 -259 -16 -14 -41 -36 -56 -50 -15 -14 -58 -52 -96 -85 -37 -33 -81
-71 -96 -85 -15 -14 -53 -47 -85 -75 -31 -27 -68 -60 -80 -73 -13 -12 -26 -22
-28 -22 -2 0 -19 -15 -38 -32 -33 -31 -138 -126 -189 -169 -61 -54 -144 -126
-164 -144 -25 -23 -126 -112 -164 -145 -37 -32 -100 -89 -138 -124 -27 -25
-35 -28 -42 -16 -5 8 -6 19 -2 25 10 16 11 34 1 41 -5 3 -5 12 1 23 6 12 5 22
-2 29 -9 9 -9 12 0 12 9 0 10 5 4 16 -5 9 -6 33 -2 54 4 21 4 44 0 51 -4 6 -4
25 0 40 5 16 5 31 1 34 -5 2 -5 23 -1 45 4 22 3 43 -1 46 -5 3 -5 12 0 22 6
10 6 23 0 34 -6 11 -5 19 1 23 8 5 7 11 -1 21 -9 11 -9 14 0 14 8 0 9 5 1 19
-7 14 -7 22 0 26 8 5 7 11 -1 21 -9 11 -9 14 0 14 8 0 9 5 1 19 -7 14 -7 22 0
26 8 5 7 11 -1 21 -9 11 -9 14 0 14 8 0 9 5 1 19 -7 14 -7 22 0 26 8 5 7 11
-1 21 -9 11 -9 14 1 14 9 0 9 4 2 13 -7 8 -7 18 -2 27 5 9 5 19 -1 27 -7 8 -7
19 1 33 8 14 8 25 1 33 -6 8 -6 18 -1 27 5 9 5 19 -1 27 -7 8 -7 19 1 33 8 14
8 25 1 33 -6 8 -6 18 -1 27 5 9 5 19 -1 27 -7 8 -7 19 1 33 8 14 8 25 1 33 -6
8 -6 18 -1 27 5 9 5 19 -1 27 -7 8 -7 19 1 33 8 14 8 25 1 33 -6 8 -6 18 -1
27 5 9 5 19 -1 27 -7 8 -7 19 1 33 8 14 8 25 1 33 -6 8 -6 18 -1 27 5 9 5 19
-1 27 -7 8 -7 19 1 33 8 14 8 25 1 33 -6 8 -6 18 -1 27 5 9 5 19 -1 27 -7 8
-7 19 1 33 8 14 8 25 1 33 -6 8 -6 18 -1 27 5 9 5 19 -1 27 -7 8 -7 19 1 33 8
14 8 25 1 33 -6 8 -6 18 -1 27 5 9 5 19 -1 27 -7 8 -7 19 1 33 8 14 8 25 1 33
-6 8 -6 18 -1 27 5 9 5 19 -1 27 -7 8 -7 19 1 33 8 14 8 25 1 33 -6 8 -6 18
-1 27 5 9 5 19 -2 27 -7 9 -7 13 1 13 8 0 9 5 1 19 -7 14 -7 22 0 26 8 5 7 11
-1 21 -9 11 -9 14 0 14 8 0 9 5 1 19 -7 14 -7 22 0 26 8 5 7 11 -1 21 -9 11
-9 14 0 14 8 0 9 5 1 19 -7 14 -7 22 0 26 8 5 7 11 -1 21 -9 11 -9 14 0 14 8
0 9 5 1 19 -7 14 -7 22 0 26 8 5 7 11 -1 21 -9 11 -9 14 0 14 8 0 9 5 1 19 -7
14 -7 22 0 26 8 5 7 11 -1 21 -9 11 -9 14 0 14 8 0 9 5 1 19 -7 14 -7 22 0 26
8 5 7 11 -1 21 -9 11 -9 14 0 14 8 0 9 5 1 19 -7 14 -7 22 0 26 8 5 7 11 -1
21 -9 11 -9 14 0 14 8 0 9 5 1 19 -7 14 -7 22 0 26 8 5 7 11 -1 21 -9 11 -9
14 1 14 9 0 9 4 2 13 -7 8 -7 18 -2 27 5 9 5 19 -1 27 -7 8 -7 19 1 33 8 14 8
25 1 33 -6 8 -6 18 -1 27 5 9 5 19 -1 27 -7 8 -7 19 1 33 8 14 8 25 1 33 -6 8
-6 18 -1 27 5 9 5 19 -1 27 -7 8 -7 19 1 33 8 14 8 25 1 33 -6 8 -6 18 -1 27
5 9 5 19 -1 27 -7 8 -7 19 1 33 8 14 8 25 1 33 -6 8 -6 18 -1 27 5 9 5 19 -1
27 -7 8 -7 19 1 33 8 14 8 25 1 33 -6 8 -6 18 -1 27 5 9 5 19 -1 27 -7 8 -7
19 1 33 8 14 8 25 1 33 -6 8 -6 18 -1 27 5 9 5 19 -1 27 -7 8 -7 19 1 33 8 14
8 25 1 33 -6 8 -6 18 -1 27 5 9 5 19 -1 27 -7 8 -7 19 1 33 8 14 8 25 1 33 -6
8 -6 18 -1 27 5 9 5 19 -1 27 -7 8 -7 18 1 33 6 11 7 26 3 33 -10 16 -10 38
-1 58 3 8 3 21 -2 29 -4 7 -5 23 0 34 4 12 3 32 -1 45 -7 19 -6 22 6 17 8 -3
15 -2 15 2 0 9 103 8 118 -2z"/>
</g>
</svg>
