<svg width="30" height="40" viewBox="0 0 30 40" fill="none" xmlns="http://www.w3.org/2000/svg">
<path
    d="M26.744 19.633a8.229 8.229 0 0 0-.36-.261c.041-.052.65-.947.852-1.377.037-.078.07-.158.104-.237a6.694 6.694 0 0 0-.24-5.76c-1.14-2.17-3.427-3.717-6.122-3.962.26-.648.403-1.35.403-2.084C21.381 2.665 18.524 0 15 0S8.619 2.665 8.619 5.952c0 .724.138 1.417.392 2.058l-6.85-.012 4.287 4h6.387v22.46L0 23.122v8.137h2.968L12.85 40h4.288l7.448-6.669 3.127-2.762a7.419 7.419 0 0 0 1.861-2.732c.355-.904.426-2.29.426-2.35 0-2.419-1.287-4.557-3.256-5.854zm-5.404-7.436c.018.005.236.08.33.12l.005.002a4.402 4.402 0 0 1 .51.26c.022.012.223.139.303.197.697.58 1.14 1.421 1.14 2.359 0 .715-.258 1.374-.686 1.904a6.1 6.1 0 0 1-.27.294c-.21.215-.605.435-.823.517-.181.067-.399.107-.827.143h-3.896v-5.995h2.93s.236.005.343.013c.007.001.235.024.34.041.002 0 .212.04.316.064.01.002.197.053.285.081zM15 3.896c1.215 0 2.204.922 2.204 2.057 0 1.135-.99 2.057-2.205 2.057s-2.204-.922-2.204-2.057c0-1.135.989-2.057 2.204-2.057zm10.745 21.592c-.105 1.18-.388 1.707-1.25 2.468l-7.37 6.512V21.997h4.534s.809.026 1.044.07a3.71 3.71 0 0 1 2.368 1.524c.38.637.726 1.326.674 1.897z" fill="#184780">
</path>
</svg>
