<svg width="314" height="112" viewBox="0 0 314 112" fill="none" xmlns="http://www.w3.org/2000/svg">
<g clip-path="url(#clip0_1327_23633)">
<path d="M33.4426 9H32.3809V30.6361H33.4426V9Z" fill="white"/>
<path d="M35.5666 13.0067H33.1777V13.808H35.5666V13.0067Z" fill="white"/>
<path d="M35.5666 18.0818H33.1777V18.8832H35.5666V18.0818Z" fill="white"/>
<path d="M37.1576 20.4858H36.3613V30.369H37.1576V20.4858Z" fill="white"/>
<path d="M47.7767 20.4858H46.9805V36.7797H47.7767V20.4858Z" fill="white"/>
<path d="M15.6613 50.4025L19.9081 57.6145L7.43302 63.7581C7.43302 63.7581 4.51333 65.3608 3.18619 63.2239C1.85906 61.3541 1.59363 60.5528 1.59363 60.5528C1.59363 60.5528 1.06278 58.9501 2.92077 57.6145C5.04418 56.5461 15.6613 50.4025 15.6613 50.4025Z" fill="#E22D36"/>
<path d="M1.32773 63.2238L0.796875 62.1553L2.38944 61.354L3.18572 62.4225L1.59316 63.2238H1.32773Z" fill="#E22D36"/>
<path d="M52.0244 37.0468H16.7227V76.3124H52.0244V37.0468Z" fill="white"/>
<path d="M40.6104 29.5677H28.9316V38.3824H40.6104V29.5677Z" fill="#DBE2E9"/>
<path d="M44.0604 26.3623H30.7891V27.1636H44.0604V26.3623Z" fill="white"/>
<path d="M44.0604 27.6979H30.7891V28.4992H44.0604V27.6979Z" fill="white"/>
<path d="M44.0604 29.0334H30.7891V29.8348H44.0604V29.0334Z" fill="white"/>
<path d="M32.9129 44.5259H13.0059V45.3273H32.9129V44.5259Z" fill="white"/>
<path d="M32.9129 45.8615H13.0059V46.6628H32.9129V45.8615Z" fill="white"/>
<path d="M32.9129 47.1971H13.0059V47.9984H32.9129V47.1971Z" fill="white"/>
<path d="M32.9129 54.6762H13.0059V55.4775H32.9129V54.6762Z" fill="white"/>
<path d="M32.9129 56.0118H13.0059V56.8131H32.9129V56.0118Z" fill="white"/>
<path d="M32.9129 57.3474H13.0059V58.1487H32.9129V57.3474Z" fill="white"/>
<path d="M32.9104 63.7581H4.50977V64.5594H32.9104V63.7581Z" fill="white"/>
<path d="M32.9104 65.0936H4.50977V65.895H32.9104V65.0936Z" fill="white"/>
<path d="M32.9104 66.4293H4.50977V67.2305H32.9104V66.4293Z" fill="white"/>
<path d="M52.0222 33.5744H24.1523V34.3757H52.0222V33.5744Z" fill="white"/>
<path d="M52.0222 34.9099H24.1523V35.7113H52.0222V34.9099Z" fill="white"/>
<path d="M52.0222 36.2455H24.1523V37.0469H52.0222V36.2455Z" fill="white"/>
<path d="M309.223 70.1688H281.354V70.9702H309.223V70.1688Z" fill="white"/>
<path d="M309.223 71.5044H281.354V72.3058H309.223V71.5044Z" fill="white"/>
<path d="M309.223 72.84H281.354V73.6413H309.223V72.84Z" fill="white"/>
<path d="M11.1486 95.8116H3.45117V109.969H11.1486V95.8116Z" fill="#BA1622"/>
<path d="M9.28983 94.4761H7.69727V96.0788H9.28983V94.4761Z" fill="#BA1622"/>
<path d="M16.4558 105.428C16.4558 106.229 15.6595 107.03 14.3324 107.03C13.2707 107.03 12.209 106.496 12.209 105.428C12.209 104.626 13.0053 103.825 14.3324 103.825C15.6595 103.825 16.4558 104.626 16.4558 105.428Z" fill="#8EA7BC"/>
<path d="M19.1117 103.825H14.334V106.763H19.1117V103.825Z" fill="#8EA7BC"/>
<path d="M16.1887 100.887C16.1887 101.688 15.9232 102.489 15.6578 102.489C15.3924 102.489 15.127 101.688 15.127 100.887C15.127 100.085 15.3924 99.2841 15.6578 99.2841C15.9232 99.2841 16.1887 100.085 16.1887 100.887Z" fill="#8EA7BC"/>
<path d="M16.1887 100.62H15.127V104.626H16.1887V100.62Z" fill="#8EA7BC"/>
<path d="M16.1887 109.969C16.1887 109.167 15.9232 108.366 15.6578 108.366C15.3924 108.366 15.127 109.167 15.127 109.969C15.127 110.77 15.3924 111.571 15.6578 111.571C15.9232 111.571 16.1887 111.037 16.1887 109.969Z" fill="#8EA7BC"/>
<path d="M16.1887 106.229H15.127V110.236H16.1887V106.229Z" fill="#8EA7BC"/>
<path d="M280.822 22.6227H280.025V74.7097H280.822V22.6227Z" fill="white"/>
<path d="M280.821 25.8281H278.697V74.4426H280.821V25.8281Z" fill="white"/>
<path d="M279.496 27.965H276.842V29.0334H279.496V27.965Z" fill="white"/>
<path d="M279.496 30.369H276.842V31.4375H279.496V30.369Z" fill="white"/>
<path d="M279.496 32.5059H276.842V33.5744H279.496V32.5059Z" fill="white"/>
<path d="M279.496 34.9099H276.842V35.9784H279.496V34.9099Z" fill="white"/>
<path d="M279.496 37.3139H276.842V38.3824H279.496V37.3139Z" fill="white"/>
<path d="M279.496 39.4509H276.842V40.5193H279.496V39.4509Z" fill="white"/>
<path d="M279.496 41.8549H276.842V42.9233H279.496V41.8549Z" fill="white"/>
<path d="M279.496 44.2589H276.842V45.3274H279.496V44.2589Z" fill="white"/>
<path d="M279.496 46.6628H276.842V47.7313H279.496V46.6628Z" fill="white"/>
<path d="M279.496 48.7999H276.842V49.8683H279.496V48.7999Z" fill="white"/>
<path d="M279.496 55.4777H276.842V56.5461H279.496V55.4777Z" fill="white"/>
<path d="M279.496 57.6146H276.842V58.683H279.496V57.6146Z" fill="white"/>
<path d="M279.496 60.0185H276.842V61.0869H279.496V60.0185Z" fill="white"/>
<path d="M279.496 62.4225H276.842V63.491H279.496V62.4225Z" fill="white"/>
<path d="M279.496 64.5594H276.842V65.6279H279.496V64.5594Z" fill="white"/>
<path d="M282.413 52.5393H280.555V55.7447H282.413V52.5393Z" fill="white"/>
<path d="M52.0222 38.3824H24.1523V43.4575H52.0222V38.3824Z" fill="#8EA7BC"/>
<path d="M23.0929 47.9984H16.7227V53.0736H23.0929V47.9984Z" fill="#8EA7BC"/>
<path d="M32.9116 47.9984H24.418V53.0736H32.9116V47.9984Z" fill="#8EA7BC"/>
<path d="M23.3583 58.1487H16.7227V62.6897H23.3583V58.1487Z" fill="#8EA7BC"/>
<path d="M32.9116 58.1487H24.418V62.6897H32.9116V58.1487Z" fill="#8EA7BC"/>
<path d="M23.3583 67.2305H16.7227V75.2439H23.3583V67.2305Z" fill="#8EA7BC"/>
<path d="M32.9116 67.2305H24.418V75.2439H32.9116V67.2305Z" fill="#8EA7BC"/>
<path d="M42.2048 67.2305H33.9766V75.2439H42.2048V67.2305Z" fill="#8EA7BC"/>
<path d="M50.963 67.2305H43.2656V75.2439H50.963V67.2305Z" fill="#8EA7BC"/>
<path d="M40.6104 31.4375H28.9316V32.2388H40.6104V31.4375Z" fill="#8EA7BC"/>
<path d="M52.0256 47.9984H33.9766V48.7997H52.0256V47.9984Z" fill="#8EA7BC"/>
<path d="M52.0256 58.1487H33.9766V58.9501H52.0256V58.1487Z" fill="#8EA7BC"/>
<path d="M31.056 39.718H27.6055V43.4575H31.056V39.718Z" fill="#235FA6"/>
<path d="M34.7728 39.718H31.3223V43.4575H34.7728V39.718Z" fill="#235FA6"/>
<path d="M38.7533 39.718H35.3027V43.4575H38.7533V39.718Z" fill="#235FA6"/>
<path d="M44.0619 39.718H40.6113V43.4575H44.0619V39.718Z" fill="#235FA6"/>
<path d="M48.0443 39.718H44.5938V43.4575H48.0443V39.718Z" fill="#235FA6"/>
<path d="M52.0248 39.718H48.5742V43.4575H52.0248V39.718Z" fill="#235FA6"/>
<path d="M28.9316 50.9367H26.2773V54.4092H28.9316V50.9367Z" fill="#235FA6"/>
<path d="M40.0805 50.1354H37.957V53.0736H40.0805V50.1354Z" fill="#235FA6"/>
<path d="M47.5101 50.1354H45.3867V53.0736H47.5101V50.1354Z" fill="#235FA6"/>
<path d="M40.0805 60.8199H37.957V63.7581H40.0805V60.8199Z" fill="#235FA6"/>
<path d="M47.5101 60.8199H45.3867V63.7581H47.5101V60.8199Z" fill="#235FA6"/>
<path d="M36.8963 68.8333H33.9766V74.4426H36.8963V68.8333Z" fill="#235FA6"/>
<path d="M29.1972 55.2104H26.543V56.0118H29.1972V55.2104Z" fill="#235FA6"/>
<path d="M29.1972 56.8132H26.543V57.6146H29.1972V56.8132Z" fill="#235FA6"/>
<path d="M276.839 75.7782L267.284 73.1071H68.7446L58.9238 75.7782H68.7446H267.284H276.839Z" fill="#8EA7BC"/>
<path d="M239.679 86.9969L276.574 75.244H59.4545H58.6582L96.8797 86.9969H239.679Z" fill="#8EA7BC"/>
<path d="M311.875 93.9418C310.813 92.6062 308.424 92.8733 307.363 92.8733C306.301 92.8733 306.035 92.8733 305.505 92.6062C305.239 92.3391 304.443 91.5378 304.443 90.7365H279.227H59.1884H0.263672C0.529099 92.3391 1.05995 94.476 1.05995 94.476C1.05995 94.476 7.69562 94.7431 12.2079 95.2774C16.7201 95.8116 19.109 96.6129 19.3744 96.88C19.9053 97.1472 21.2324 97.9485 21.2324 99.2841C21.2324 100.887 19.9053 101.955 19.9053 101.955C19.9053 101.955 18.0473 104.092 18.8435 106.763C19.6398 109.434 22.825 110.503 24.1521 111.037C25.7446 111.304 28.3989 111.838 28.3989 111.838H292.233C292.233 111.838 297.807 112.105 303.116 109.701C309.22 107.03 310.813 103.291 311.875 100.887C313.202 98.2156 312.936 95.2774 311.875 93.9418Z" fill="#E22D36"/>
<path d="M1.06171 63.7581H0V75.2439H1.06171V63.7581Z" fill="#8EA7BC"/>
<path d="M6.90175 67.2305H6.10547V75.2439H6.90175V67.2305Z" fill="#8EA7BC"/>
<path d="M0.794526 56.0118H0.263672V62.4225H0.794526V56.0118Z" fill="#8EA7BC"/>
<path d="M0 63.7582L16.7219 54.1421V55.7448L0 65.3608V63.7582Z" fill="#DBE2E9"/>
<path d="M4.51285 62.6897L0.796875 68.8333V70.4359L6.37084 61.6212L4.51285 62.6897Z" fill="#8EA7BC"/>
<path d="M71.1359 77.1138H70.0742V86.9969H71.1359V77.1138Z" fill="white"/>
<path d="M75.382 77.1138H74.3203V86.9969H75.382V77.1138Z" fill="white"/>
<path d="M79.6281 77.1138H78.5664V86.9969H79.6281V77.1138Z" fill="white"/>
<path d="M84.1418 77.1138H83.0801V86.9969H84.1418V77.1138Z" fill="white"/>
<path d="M88.3879 77.1138H87.3262V86.9969H88.3879V77.1138Z" fill="white"/>
<path d="M92.634 77.1138H91.5723V86.9969H92.634V77.1138Z" fill="white"/>
<path d="M96.8801 77.1138H95.8184V86.9969H96.8801V77.1138Z" fill="white"/>
<path d="M101.126 77.1138H100.064V86.9969H101.126V77.1138Z" fill="white"/>
<path d="M105.64 77.1138H104.578V86.9969H105.64V77.1138Z" fill="white"/>
<path d="M109.886 77.1138H108.824V86.9969H109.886V77.1138Z" fill="white"/>
<path d="M114.134 77.1138H113.072V86.9969H114.134V77.1138Z" fill="white"/>
<path d="M118.38 77.1138H117.318V86.9969H118.38V77.1138Z" fill="white"/>
<path d="M122.628 77.1138H121.566V86.9969H122.628V77.1138Z" fill="white"/>
<path d="M127.14 77.1138H126.078V86.9969H127.14V77.1138Z" fill="white"/>
<path d="M131.386 77.1138H130.324V86.9969H131.386V77.1138Z" fill="white"/>
<path d="M135.632 77.1138H134.57V86.9969H135.632V77.1138Z" fill="white"/>
<path d="M139.88 77.1138H138.818V86.9969H139.88V77.1138Z" fill="white"/>
<path d="M144.126 77.1138H143.064V86.9969H144.126V77.1138Z" fill="white"/>
<path d="M148.638 77.1138H147.576V86.9969H148.638V77.1138Z" fill="white"/>
<path d="M152.884 77.1138H151.822V86.9969H152.884V77.1138Z" fill="white"/>
<path d="M157.134 77.1138H156.072V86.9969H157.134V77.1138Z" fill="white"/>
<path d="M161.38 77.1138H160.318V86.9969H161.38V77.1138Z" fill="white"/>
<path d="M165.626 77.1138H164.564V86.9969H165.626V77.1138Z" fill="white"/>
<path d="M170.138 77.1138H169.076V86.9969H170.138V77.1138Z" fill="white"/>
<path d="M174.386 77.1138H173.324V86.9969H174.386V77.1138Z" fill="white"/>
<path d="M178.632 77.1138H177.57V86.9969H178.632V77.1138Z" fill="white"/>
<path d="M182.878 77.1138H181.816V86.9969H182.878V77.1138Z" fill="white"/>
<path d="M187.124 77.1138H186.062V86.9969H187.124V77.1138Z" fill="white"/>
<path d="M191.64 77.1138H190.578V86.9969H191.64V77.1138Z" fill="white"/>
<path d="M195.886 77.1138H194.824V86.9969H195.886V77.1138Z" fill="white"/>
<path d="M200.132 77.1138H199.07V86.9969H200.132V77.1138Z" fill="white"/>
<path d="M204.378 77.1138H203.316V86.9969H204.378V77.1138Z" fill="white"/>
<path d="M208.624 77.1138H207.562V86.9969H208.624V77.1138Z" fill="white"/>
<path d="M213.138 77.1138H212.076V86.9969H213.138V77.1138Z" fill="white"/>
<path d="M217.384 77.1138H216.322V86.9969H217.384V77.1138Z" fill="white"/>
<path d="M221.63 77.1138H220.568V86.9969H221.63V77.1138Z" fill="white"/>
<path d="M225.876 77.1138H224.814V86.9969H225.876V77.1138Z" fill="white"/>
<path d="M230.126 77.1138H229.064V86.9969H230.126V77.1138Z" fill="white"/>
<path d="M234.638 77.1138H233.576V86.9969H234.638V77.1138Z" fill="white"/>
<path d="M238.884 77.1138H237.822V86.9969H238.884V77.1138Z" fill="white"/>
<path d="M243.13 77.1138H242.068V86.9969H243.13V77.1138Z" fill="white"/>
<path d="M247.38 77.1138H246.318V86.9969H247.38V77.1138Z" fill="white"/>
<path d="M251.626 77.1138H250.564V86.9969H251.626V77.1138Z" fill="white"/>
<path d="M256.136 77.1138H255.074V86.9969H256.136V77.1138Z" fill="white"/>
<path d="M260.382 77.1138H259.32V86.9969H260.382V77.1138Z" fill="white"/>
<path d="M264.632 77.1138H263.57V86.9969H264.632V77.1138Z" fill="white"/>
<path d="M268.878 77.1138H267.816V86.9969H268.878V77.1138Z" fill="white"/>
<path d="M314 73.9084V69.9017H312.673L280.822 73.9084L276.575 75.2439L239.415 86.9969H96.8808L59.1902 75.511L58.6593 75.2439H0V83.5244C0 83.5244 0 89.1338 0.265427 91.0036H59.1902H279.229H304.445C303.914 89.1338 305.772 86.4627 305.772 86.4627L314 73.9084Z" fill="#235FA6"/>
<path d="M24.9519 80.052C24.9519 80.3191 24.6865 80.8533 24.1557 80.8533C23.8902 80.8533 23.3594 80.5862 23.3594 80.052C23.3594 79.7848 23.6248 79.2506 24.1557 79.2506C24.6865 79.2506 24.9519 79.7848 24.9519 80.052Z" fill="#312780"/>
<path d="M34.241 80.052C34.241 80.3191 33.9756 80.8533 33.4447 80.8533C33.1793 80.8533 32.6484 80.5862 32.6484 80.052C32.6484 79.7848 32.9139 79.2506 33.4447 79.2506C33.7102 79.2506 34.241 79.7848 34.241 80.052Z" fill="#312780"/>
<path d="M43.7957 80.052C43.7957 80.3191 43.5303 80.8533 42.9994 80.8533C42.734 80.8533 42.2031 80.5862 42.2031 80.052C42.2031 79.7848 42.4686 79.2506 42.9994 79.2506C43.5303 79.2506 43.7957 79.7848 43.7957 80.052Z" fill="#312780"/>
<path d="M96.8808 84.3258L58.9248 72.3057H0V71.5044H58.9248V71.7715L97.1462 83.5245L96.8808 84.3258Z" fill="white"/>
<path d="M96.8808 85.6614L58.9248 73.9084H0V73.1071H58.9248L97.1462 84.86L96.8808 85.6614Z" fill="white"/>
<path d="M96.8808 86.9969L58.9248 75.244H0V74.4426H58.9248L97.1462 86.1956L96.8808 86.9969Z" fill="white"/>
<path d="M240.211 84.3258H96.8809V83.5245H240.211L281.353 70.1688L281.618 70.9702L240.211 84.3258Z" fill="white"/>
<path d="M240.211 85.6614H96.8809V84.86H240.211L281.353 71.5044L281.618 72.3057L240.211 85.6614Z" fill="white"/>
<path d="M240.211 86.9969H96.8809V86.1956H240.211L281.353 72.84L281.618 73.6413L240.211 86.9969Z" fill="white"/>
<path d="M295.686 106.229C295.686 107.03 295.155 107.565 294.358 107.565C293.562 107.565 293.031 107.03 293.031 106.229C293.031 105.428 293.562 104.893 294.358 104.893C295.155 104.893 295.686 105.695 295.686 106.229Z" fill="#312780"/>
</g>
<path d="M31.6035 13.9654V0.909668L54.6036 7.43657L31.6035 13.9654Z" fill="#E22833"/>
<path d="M36.2047 4.84766L35.3592 6.59283L33.4707 6.87171L34.8382 8.23211L34.5146 10.1512L36.2047 9.24461L37.8957 10.1512L37.5712 8.23211L38.9396 6.87171L37.0502 6.59283L36.2047 4.84766Z" fill="white"/>
<defs>
<clipPath id="clip0_1327_23633">
<rect width="314" height="102.838" fill="white" transform="translate(0 9)"/>
</clipPath>
</defs>
</svg>
