<svg width="362" height="62" viewBox="0 0 362 62" fill="none" xmlns="http://www.w3.org/2000/svg">
<g clip-path="url(#clip0_739_1194)">
<mask id="mask0_739_1194" style="mask-type:luminance" maskUnits="userSpaceOnUse" x="0" y="1" width="362" height="61">
<path d="M0 1H362V61.8603H0V1Z" fill="white"/>
</mask>
<g mask="url(#mask0_739_1194)">
<path d="M31.5841 44.8813H288.672L293.531 48.8504H34.8971C34.8971 48.8504 34.0131 48.1889 33.5721 47.7479C33.1301 47.3069 32.4671 46.4249 32.4671 46.4249H28.2711C28.4921 46.4249 29.8171 45.7633 31.5841 44.8813Z" fill="#E22D36"/>
<path d="M35.5601 42.6763C37.9901 41.3532 40.4191 41.7942 40.4191 41.7942H137.601L139.588 42.6763H152.62V41.7942H284.918L286.906 43.3378H34.6771C34.8981 43.1173 35.3401 42.8968 35.5601 42.6763Z" fill="#E22D36"/>
<path d="M31.3611 44.8809V43.3374H34.4531C33.5701 43.7784 32.4651 44.4399 31.3611 44.8809Z" fill="#891812"/>
<path d="M34.457 43.3374H286.907L288.674 44.8809H31.585C32.469 44.4399 33.573 43.7784 34.457 43.3374Z" fill="#BA1622"/>
<path d="M348.084 40.2505H335.274V42.0145H289.554L288.671 1H288.008L287.567 42.0145H285.137L293.53 48.8503H305.457V46.8657H310.978V48.8503H332.623L335.715 46.8657H348.084V40.2505Z" fill="white"/>
<path d="M359.13 44.6606H360.455V46.8657H359.13V44.6606Z" fill="#235FA6"/>
<path d="M347.643 57.891C347.643 57.6705 347.864 57.6705 347.864 57.6705L348.527 57.2295L348.748 55.0244H349.189L348.969 54.1424L350.294 53.9219V55.0244H353.165C353.828 55.0244 354.49 55.686 354.49 56.3475V59.6551C354.49 60.3166 354.269 60.9782 353.165 60.9782H349.189V59.4346C349.189 59.4346 347.864 58.9936 347.643 58.9936C347.423 58.9936 347.423 58.7731 347.423 58.7731C347.423 58.7731 347.643 58.1116 347.643 57.891Z" fill="#BA1622"/>
<path d="M323.57 58.3321C319.594 58.9936 311.422 60.0962 309.214 60.3167C307.226 60.5372 295.52 61.8602 289.115 62.0807H18.333C18.333 62.0807 13.694 61.8602 10.381 60.7577C8.17301 59.8757 6.62699 58.5526 5.08099 56.7886H331.963C329.754 57.0091 326.22 57.8911 323.57 58.3321Z" fill="#E22D36"/>
<path d="M341.902 58.1118C341.461 58.5528 341.24 58.9938 341.019 59.2143C341.24 58.9938 341.461 58.7733 341.461 58.5528C341.682 58.3323 341.902 58.3323 341.902 58.1118Z" fill="#009D96"/>
<path d="M341.238 59.2142C341.459 58.9937 341.68 58.5526 342.122 58.1116C342.563 57.6706 343.005 57.0091 343.668 56.5681L343.889 56.3476C344.33 56.1271 344.772 55.9065 345.214 55.686V56.1271C345.214 56.1271 345.876 56.1271 346.318 56.5681C346.539 56.7886 346.539 57.0091 346.539 57.4501C346.539 57.8911 346.539 59.8757 346.539 59.8757C346.539 59.8757 346.539 60.7577 345.656 60.9782C345.435 60.9782 344.993 60.9782 344.551 60.9782C343.447 60.9782 342.343 60.9782 342.343 60.9782C342.343 60.9782 341.901 60.9782 341.68 60.7577C341.459 60.7577 341.459 60.5372 341.459 60.3167C341.238 59.8757 341.459 59.6552 341.238 59.4347C341.238 59.4347 341.017 59.2142 341.238 59.2142Z" fill="#BA1622"/>
<path d="M323.568 58.332C326.218 57.891 329.752 57.2294 331.961 56.5679H340.133C339.691 56.7884 338.587 57.2294 337.703 57.4499C335.495 58.1115 331.961 58.9935 320.697 60.096C307.445 61.1986 290.659 61.8601 290.659 61.8601H293.751H289.113C295.518 61.6396 307.003 60.3165 309.212 60.096C311.42 59.8755 319.592 58.773 323.568 58.332Z" fill="#E22D36"/>
<path d="M320.917 60.096C331.96 59.214 335.715 58.1115 337.924 57.4499C338.807 57.2294 339.69 56.7884 340.353 56.5679H341.899H343.445H343.666C343.003 57.0089 342.562 57.6705 342.12 58.1115C341.899 58.332 341.678 58.332 341.678 58.5525C341.457 58.773 341.237 58.9935 341.237 59.214C341.016 59.655 340.574 60.096 340.353 60.537C340.132 61.1986 339.911 61.8601 339.911 61.8601H320.033H293.75H290.658C290.879 61.8601 307.665 61.1986 320.917 60.096Z" fill="#BA1622"/>
<path d="M346.759 41.7939H348.084V44.44H346.759V41.7939Z" fill="#235FA6"/>
<path d="M338.146 41.7939H339.25V44.44H338.146V41.7939Z" fill="#235FA6"/>
<path d="M336.38 41.7939H337.484V44.44H336.38V41.7939Z" fill="#235FA6"/>
<path d="M298.832 43.1172H299.494V44.2197H298.832V43.1172Z" fill="#235FA6"/>
<path d="M297.287 43.1172H297.949V44.2197H297.287V43.1172Z" fill="#235FA6"/>
<path d="M288.451 43.1172H289.113V44.2197H288.451V43.1172Z" fill="#235FA6"/>
<path d="M19.4372 41.1322H17.4492V40.2502H23.4132V33.6349H20.5412V31.4299H25.1802C25.1802 31.4299 26.2842 31.4299 26.0632 32.5324C26.0632 33.6349 25.1802 33.6349 25.1802 33.6349H24.0752V40.2502H28.4932V38.4861H27.6092V37.1631H30.0392V38.4861H29.1552V40.2502H36.2232L36.4442 6.73291H37.3272L38.2112 40.2502L41.3032 41.5732C41.3032 41.5732 38.8732 41.5732 37.1062 42.4553C35.7812 43.1168 28.4932 46.4244 28.4932 46.4244H18.1122V42.8963H19.4372V41.1322Z" fill="white"/>
<path d="M17.45 41.7938V41.1323H19.438V43.1169H18.112V41.7938H17.45Z" fill="#235FA6"/>
<path d="M42.4059 22.1689H43.0679V41.7941H42.4059V22.1689Z" fill="white"/>
<path d="M30.2592 41.1323H31.8052V42.8964H30.2592V41.1323Z" fill="#235FA6"/>
<path d="M26.9452 41.1323H29.5962V42.8964H26.9452V41.1323Z" fill="#235FA6"/>
<path d="M23.6332 41.1323H26.2832V42.8964H23.6332V41.1323Z" fill="#235FA6"/>
<path d="M20.0989 43.1171C20.0989 43.1171 23.1909 42.4555 22.5289 42.676C21.8659 42.8965 23.1909 42.4555 23.1909 42.4555V41.353H19.8779V43.1171H20.0989Z" fill="#235FA6"/>
<path d="M32.9091 51.2759H293.531V45.7632H32.9091V51.2759ZM293.31 51.0554H33.1301V45.9837H293.31V51.0554Z" fill="white"/>
<path d="M32.4661 45.7632H33.3501V45.9837H32.4661V45.7632Z" fill="white"/>
<path d="M34.6779 45.7632H34.8979V49.2913H34.6779V45.7632Z" fill="white"/>
<path d="M36.4421 45.7632H36.6621V49.2913H36.4421V45.7632Z" fill="white"/>
<path d="M38.2111 45.7632H38.4321V49.2913H38.2111V45.7632Z" fill="white"/>
<path d="M39.7561 45.7632H39.9771V49.2913H39.7561V45.7632Z" fill="white"/>
<path d="M41.5241 45.7632H41.7441V49.2913H41.5241V45.7632Z" fill="white"/>
<path d="M43.2912 45.7632H43.5122V49.2913H43.2912V45.7632Z" fill="white"/>
<path d="M45.0569 45.7632H45.2769V49.2913H45.0569V45.7632Z" fill="white"/>
<path d="M46.8249 45.7632H47.0449V49.2913H46.8249V45.7632Z" fill="white"/>
<path d="M48.3688 45.7632H48.5898V49.2913H48.3688V45.7632Z" fill="white"/>
<path d="M50.1369 45.7632H50.3569V49.2913H50.1369V45.7632Z" fill="white"/>
<path d="M51.9031 45.7632H52.123V49.2913H51.9031V45.7632Z" fill="white"/>
<path d="M53.6701 45.7632H53.8911V49.2913H53.6701V45.7632Z" fill="white"/>
<path d="M55.4402 45.7632H55.6602V49.2913H55.4402V45.7632Z" fill="white"/>
<path d="M56.9851 45.7632H57.2051V49.2913H56.9851V45.7632Z" fill="white"/>
<path d="M58.7522 45.7632H58.9731V49.2913H58.7522V45.7632Z" fill="white"/>
<path d="M60.5178 45.7632H60.7378V49.2913H60.5178V45.7632Z" fill="white"/>
<path d="M62.2849 45.7632H62.5059V49.2913H62.2849V45.7632Z" fill="white"/>
<path d="M64.051 45.7632H64.271V49.2913H64.051V45.7632Z" fill="white"/>
<path d="M65.8191 45.7632H66.0391V49.2913H65.8191V45.7632Z" fill="white"/>
<path d="M67.364 45.7632H67.584V49.2913H67.364V45.7632Z" fill="white"/>
<path d="M69.1311 45.7632H69.3521V49.2913H69.1311V45.7632Z" fill="white"/>
<path d="M70.8991 45.7632H71.1191V49.2913H70.8991V45.7632Z" fill="white"/>
<path d="M72.6638 45.7632H72.8848V49.2913H72.6638V45.7632Z" fill="white"/>
<path d="M74.4338 45.7632H74.6538V49.2913H74.4338V45.7632Z" fill="white"/>
<path d="M75.9792 45.7632H76.1992V49.2913H75.9792V45.7632Z" fill="white"/>
<path d="M77.7458 45.7632H77.9668V49.2913H77.7458V45.7632Z" fill="white"/>
<path d="M79.5119 45.7632H79.7319V49.2913H79.5119V45.7632Z" fill="white"/>
<path d="M81.28 45.7632H81.5V49.2913H81.28V45.7632Z" fill="white"/>
<path d="M83.0471 45.7632H83.2681V49.2913H83.0471V45.7632Z" fill="white"/>
<path d="M84.592 45.7632H84.812V49.2913H84.592V45.7632Z" fill="white"/>
<path d="M86.3601 45.7632H86.5801V49.2913H86.3601V45.7632Z" fill="white"/>
<path d="M88.1252 45.7632H88.3462V49.2913H88.1252V45.7632Z" fill="white"/>
<path d="M89.8928 45.7632H90.1128V49.2913H89.8928V45.7632Z" fill="white"/>
<path d="M91.6589 45.7632H91.8789V49.2913H91.6589V45.7632Z" fill="white"/>
<path d="M93.426 45.7632H93.646V49.2913H93.426V45.7632Z" fill="white"/>
<path d="M94.9709 45.7632H95.1909V49.2913H94.9709V45.7632Z" fill="white"/>
<path d="M96.7409 45.7632H96.9609V49.2913H96.7409V45.7632Z" fill="white"/>
<path d="M98.508 45.7632H98.729V49.2913H98.508V45.7632Z" fill="white"/>
<path d="M100.274 45.7632H100.494V49.2913H100.274V45.7632Z" fill="white"/>
<path d="M102.041 45.7632H102.262V49.2913H102.041V45.7632Z" fill="white"/>
<path d="M103.586 45.7632H103.807V49.2913H103.586V45.7632Z" fill="white"/>
<path d="M105.354 45.7632H105.574V49.2913H105.354V45.7632Z" fill="white"/>
<path d="M107.12 45.7632H107.34V49.2913H107.12V45.7632Z" fill="white"/>
<path d="M108.887 45.7632H109.107V49.2913H108.887V45.7632Z" fill="white"/>
<path d="M110.655 45.7632H110.875V49.2913H110.655V45.7632Z" fill="white"/>
<path d="M112.2 45.7632H112.42V49.2913H112.2V45.7632Z" fill="white"/>
<path d="M113.969 45.7632H114.189V49.2913H113.969V45.7632Z" fill="white"/>
<path d="M115.733 45.7632H115.953V49.2913H115.733V45.7632Z" fill="white"/>
<path d="M117.502 45.7632H117.723V49.2913H117.502V45.7632Z" fill="white"/>
<path d="M119.268 45.7632H119.488V49.2913H119.268V45.7632Z" fill="white"/>
<path d="M120.815 45.7632H121.035V49.2913H120.815V45.7632Z" fill="white"/>
<path d="M122.58 45.7632H122.801V49.2913H122.58V45.7632Z" fill="white"/>
<path d="M124.348 45.7632H124.568V49.2913H124.348V45.7632Z" fill="white"/>
<path d="M126.115 45.7632H126.336V49.2913H126.115V45.7632Z" fill="white"/>
<path d="M127.881 45.7632H128.102V49.2913H127.881V45.7632Z" fill="white"/>
<path d="M129.649 45.7632H129.869V49.2913H129.649V45.7632Z" fill="white"/>
<path d="M131.194 45.7632H131.414V49.2913H131.194V45.7632Z" fill="white"/>
<path d="M132.963 45.7632H133.184V49.2913H132.963V45.7632Z" fill="white"/>
<path d="M134.727 45.7632H134.947V49.2913H134.727V45.7632Z" fill="white"/>
<path d="M136.496 45.7632H136.717V49.2913H136.496V45.7632Z" fill="white"/>
<path d="M138.264 45.7632H138.484V49.2913H138.264V45.7632Z" fill="white"/>
<path d="M139.809 45.7632H140.029V49.2913H139.809V45.7632Z" fill="white"/>
<path d="M141.577 45.7632H141.797V49.2913H141.577V45.7632Z" fill="white"/>
<path d="M143.342 45.7632H143.562V49.2913H143.342V45.7632Z" fill="white"/>
<path d="M145.11 45.7632H145.33V49.2913H145.11V45.7632Z" fill="white"/>
<path d="M146.875 45.7632H147.096V49.2913H146.875V45.7632Z" fill="white"/>
<path d="M148.424 45.7632H148.645V49.2913H148.424V45.7632Z" fill="white"/>
<path d="M150.188 45.7632H150.408V49.2913H150.188V45.7632Z" fill="white"/>
<path d="M151.957 45.7632H152.178V49.2913H151.957V45.7632Z" fill="white"/>
<path d="M153.725 45.7632H153.945V49.2913H153.725V45.7632Z" fill="white"/>
<path d="M155.49 45.7632H155.711V49.2913H155.49V45.7632Z" fill="white"/>
<path d="M157.037 45.7632H157.258V49.2913H157.037V45.7632Z" fill="white"/>
<path d="M158.803 45.7632H159.023V49.2913H158.803V45.7632Z" fill="white"/>
<path d="M160.571 45.7632H160.791V49.2913H160.571V45.7632Z" fill="white"/>
<path d="M162.336 45.7632H162.557V49.2913H162.336V45.7632Z" fill="white"/>
<path d="M164.104 45.7632H164.324V49.2913H164.104V45.7632Z" fill="white"/>
<path d="M165.871 45.7632H166.092V49.2913H165.871V45.7632Z" fill="white"/>
<path d="M167.416 45.7632H167.637V49.2913H167.416V45.7632Z" fill="white"/>
<path d="M169.186 45.7632H169.406V49.2913H169.186V45.7632Z" fill="white"/>
<path d="M170.95 45.7632H171.17V49.2913H170.95V45.7632Z" fill="white"/>
<path d="M172.719 45.7632H172.939V49.2913H172.719V45.7632Z" fill="white"/>
<path d="M174.485 45.7632H174.705V49.2913H174.485V45.7632Z" fill="white"/>
<path d="M176.032 45.7632H176.252V49.2913H176.032V45.7632Z" fill="white"/>
<path d="M177.797 45.7632H178.018V49.2913H177.797V45.7632Z" fill="white"/>
<path d="M179.565 45.7632H179.785V49.2913H179.565V45.7632Z" fill="white"/>
<path d="M181.332 45.7632H181.553V49.2913H181.332V45.7632Z" fill="white"/>
<path d="M183.098 45.7632H183.318V49.2913H183.098V45.7632Z" fill="white"/>
<path d="M184.647 45.7632H184.867V49.2913H184.647V45.7632Z" fill="white"/>
<path d="M186.411 45.7632H186.631V49.2913H186.411V45.7632Z" fill="white"/>
<path d="M188.18 45.7632H188.4V49.2913H188.18V45.7632Z" fill="white"/>
<path d="M189.944 45.7632H190.164V49.2913H189.944V45.7632Z" fill="white"/>
<path d="M191.713 45.7632H191.934V49.2913H191.713V45.7632Z" fill="white"/>
<path d="M193.258 45.7632H193.479V49.2913H193.258V45.7632Z" fill="white"/>
<path d="M195.026 45.7632H195.246V49.2913H195.026V45.7632Z" fill="white"/>
<path d="M196.793 45.7632H197.014V49.2913H196.793V45.7632Z" fill="white"/>
<path d="M198.559 45.7632H198.779V49.2913H198.559V45.7632Z" fill="white"/>
<path d="M200.326 45.7632H200.547V49.2913H200.326V45.7632Z" fill="white"/>
<path d="M202.092 45.7632H202.312V49.2913H202.092V45.7632Z" fill="white"/>
<path d="M203.639 45.7632H203.859V49.2913H203.639V45.7632Z" fill="white"/>
<path d="M205.405 45.7632H205.625V49.2913H205.405V45.7632Z" fill="white"/>
<path d="M207.172 45.7632H207.393V49.2913H207.172V45.7632Z" fill="white"/>
<path d="M208.942 45.7632H209.162V49.2913H208.942V45.7632Z" fill="white"/>
<path d="M210.707 45.7632H210.928V49.2913H210.707V45.7632Z" fill="white"/>
<path d="M212.254 45.7632H212.475V49.2913H212.254V45.7632Z" fill="white"/>
<path d="M214.02 45.7632H214.24V49.2913H214.02V45.7632Z" fill="white"/>
<path d="M215.787 45.7632H216.008V49.2913H215.787V45.7632Z" fill="white"/>
<path d="M217.553 45.7632H217.773V49.2913H217.553V45.7632Z" fill="white"/>
<path d="M219.321 45.7632H219.541V49.2913H219.321V45.7632Z" fill="white"/>
<path d="M220.866 45.7632H221.086V49.2913H220.866V45.7632Z" fill="white"/>
<path d="M222.633 45.7632H222.854V49.2913H222.633V45.7632Z" fill="white"/>
<path d="M224.401 45.7632H224.621V49.2913H224.401V45.7632Z" fill="white"/>
<path d="M226.166 45.7632H226.387V49.2913H226.166V45.7632Z" fill="white"/>
<path d="M227.936 45.7632H228.156V49.2913H227.936V45.7632Z" fill="white"/>
<path d="M229.699 45.7632H229.92V49.2913H229.699V45.7632Z" fill="white"/>
<path d="M231.248 45.7632H231.469V49.2913H231.248V45.7632Z" fill="white"/>
<path d="M233.014 45.7632H233.234V49.2913H233.014V45.7632Z" fill="white"/>
<path d="M234.782 45.7632H235.002V49.2913H234.782V45.7632Z" fill="white"/>
<path d="M236.549 45.7632H236.77V49.2913H236.549V45.7632Z" fill="white"/>
<path d="M238.315 45.7632H238.535V49.2913H238.315V45.7632Z" fill="white"/>
<path d="M239.862 45.7632H240.082V49.2913H239.862V45.7632Z" fill="white"/>
<path d="M241.627 45.7632H241.848V49.2913H241.627V45.7632Z" fill="white"/>
<path d="M243.395 45.7632H243.615V49.2913H243.395V45.7632Z" fill="white"/>
<path d="M245.161 45.7632H245.381V49.2913H245.161V45.7632Z" fill="white"/>
<path d="M246.93 45.7632H247.15V49.2913H246.93V45.7632Z" fill="white"/>
<path d="M248.475 45.7632H248.695V49.2913H248.475V45.7632Z" fill="white"/>
<path d="M250.243 45.7632H250.463V49.2913H250.243V45.7632Z" fill="white"/>
<path d="M252.01 45.7632H252.23V49.2913H252.01V45.7632Z" fill="white"/>
<path d="M253.776 45.7632H253.996V49.2913H253.776V45.7632Z" fill="white"/>
<path d="M255.543 45.7632H255.764V49.2913H255.543V45.7632Z" fill="white"/>
<path d="M257.088 45.7632H257.309V49.2913H257.088V45.7632Z" fill="white"/>
<path d="M258.856 45.7632H259.076V49.2913H258.856V45.7632Z" fill="white"/>
<path d="M260.621 45.7632H260.842V49.2913H260.621V45.7632Z" fill="white"/>
<path d="M262.389 45.7632H262.609V49.2913H262.389V45.7632Z" fill="white"/>
<path d="M264.159 45.7632H264.379V49.2913H264.159V45.7632Z" fill="white"/>
<path d="M265.922 45.7632H266.143V49.2913H265.922V45.7632Z" fill="white"/>
<path d="M267.471 45.7632H267.691V49.2913H267.471V45.7632Z" fill="white"/>
<path d="M269.237 45.7632H269.457V49.2913H269.237V45.7632Z" fill="white"/>
<path d="M271.004 45.7632H271.225V49.2913H271.004V45.7632Z" fill="white"/>
<path d="M272.77 45.7632H272.99V49.2913H272.77V45.7632Z" fill="white"/>
<path d="M274.537 45.7632H274.758V49.2913H274.537V45.7632Z" fill="white"/>
<path d="M276.082 45.7632H276.303V49.2913H276.082V45.7632Z" fill="white"/>
<path d="M277.85 45.7632H278.07V49.2913H277.85V45.7632Z" fill="white"/>
<path d="M279.617 45.7632H279.838V49.2913H279.617V45.7632Z" fill="white"/>
<path d="M281.383 45.7632H281.604V49.2913H281.383V45.7632Z" fill="white"/>
<path d="M283.151 45.7632H283.371V49.2913H283.151V45.7632Z" fill="white"/>
<path d="M284.697 45.7632H284.918V49.2913H284.697V45.7632Z" fill="white"/>
<path d="M286.465 45.7632H286.686V49.2913H286.465V45.7632Z" fill="white"/>
<path d="M288.231 45.7632H288.451V49.2913H288.231V45.7632Z" fill="white"/>
<path d="M289.998 45.7632H290.219V49.2913H289.998V45.7632Z" fill="white"/>
<path d="M291.766 45.7632H291.986V49.2913H291.766V45.7632Z" fill="white"/>
<path d="M33.1301 47.0864H293.531V47.3069H33.1301V47.0864Z" fill="white"/>
<path d="M33.1301 47.7476H293.531V47.9681H33.1301V47.7476Z" fill="white"/>
<path d="M8.61401 45.3223L11.043 46.4249H32.688C32.909 46.8659 33.351 47.3069 33.572 47.5274C33.793 47.7479 34.897 48.63 34.897 48.63H305.458V46.6454H310.98V48.63H332.625L335.938 46.6454L362 46.8659V52.3786C362 52.8196 360.896 53.2606 359.791 53.4811C358.466 53.4811 356.257 53.9222 356.257 53.9222C356.257 53.9222 353.386 54.1427 348.969 54.5837C347.423 54.8042 346.098 55.2452 344.993 55.6862C344.772 55.9067 344.331 56.1272 343.889 56.3478L343.668 56.5683H343.447H341.901H340.134H331.741H5.07999C4.19599 55.4657 3.534 54.3632 2.871 53.2606C1.546 50.8351 -0.221008 45.3223 -0.221008 45.3223H8.61401Z" fill="#235FA6"/>
<path d="M348.085 45.7632H356.699V47.3067H348.085V45.7632Z" fill="#235FA6"/>
<path d="M355.594 46.8658V45.7633H354.489L354.269 44.2197H350.514V46.8658H355.594Z" fill="white"/>
</g>
<path d="M289.396 13.9654V0.909668L266.396 7.43657L289.396 13.9654Z" fill="#E22833"/>
<path d="M284.795 4.84766L285.641 6.59283L287.529 6.87171L286.162 8.23211L286.485 10.1512L284.795 9.24461L283.104 10.1512L283.429 8.23211L282.06 6.87171L283.95 6.59283L284.795 4.84766Z" fill="white"/>
</g>
<defs>
<clipPath id="clip0_739_1194">
<rect width="362" height="62" fill="white" transform="matrix(-1 0 0 1 362 0)"/>
</clipPath>
</defs>
</svg>
