<svg width="362" height="62" viewBox="0 0 362 62" fill="none" xmlns="http://www.w3.org/2000/svg">
<g clip-path="url(#clip0_1327_23634)">
<path d="M330.416 44.8812H73.3278L68.4688 48.8503H327.103C327.103 48.8503 327.987 48.1888 328.428 47.7478C328.87 47.3068 329.533 46.4247 329.533 46.4247H333.729C333.508 46.4247 332.183 45.7632 330.416 44.8812Z" fill="#E22D36"/>
<path d="M326.44 42.6761C324.01 41.353 321.581 41.794 321.581 41.794H224.399L222.412 42.6761H209.38V41.794H77.0816L75.0938 43.3376H327.323C327.102 43.1171 326.66 42.8966 326.44 42.6761Z" fill="#E22D36"/>
<path d="M330.639 44.8811V43.3376H327.547C328.43 43.7786 329.535 44.4401 330.639 44.8811Z" fill="#891812"/>
<path d="M327.543 43.3376H75.0931L73.3262 44.8811H330.415C329.531 44.4401 328.427 43.7786 327.543 43.3376Z" fill="#BA1622"/>
<path d="M13.916 40.2505H26.7263V42.0145H72.4456L73.3291 1H73.9917L74.4334 42.0145H76.8629L68.47 48.8503H56.5432V46.8657H51.0216V48.8503H29.3767L26.2845 46.8657H13.916V40.2505Z" fill="white"/>
<path d="M2.87012 44.6606H1.54492V46.8657H2.87012V44.6606Z" fill="#235FA6"/>
<path d="M14.3566 57.8911C14.3566 57.6706 14.1358 57.6706 14.1358 57.6706L13.4732 57.2296L13.2523 55.0245H12.8106L13.0314 54.1425L11.7062 53.922V55.0245H8.83496C8.17236 55.0245 7.50977 55.6861 7.50977 56.3476V59.6552C7.50977 60.3167 7.73063 60.9783 8.83496 60.9783H12.8106V59.4347C12.8106 59.4347 14.1358 58.9937 14.3566 58.9937C14.5775 58.9937 14.5775 58.7732 14.5775 58.7732C14.5775 58.7732 14.3566 58.1117 14.3566 57.8911Z" fill="#BA1622"/>
<path d="M38.43 58.3321C42.4056 58.9936 50.5777 60.0962 52.7863 60.3167C54.7741 60.5372 66.4801 61.8602 72.8852 62.0807H343.667C343.667 62.0807 348.306 61.8602 351.619 60.7577C353.827 59.8757 355.373 58.5526 356.919 56.7886H30.0371C32.2458 57.0091 35.7796 57.8911 38.43 58.3321Z" fill="#E22D36"/>
<path d="M20.0977 58.1117C20.5394 58.5527 20.7603 58.9937 20.9811 59.2142C20.7603 58.9937 20.5394 58.7732 20.5394 58.5527C20.3185 58.3322 20.0977 58.3322 20.0977 58.1117Z" fill="#009D96"/>
<path d="M20.7617 59.2142C20.5409 58.9937 20.32 58.5526 19.8783 58.1116C19.4365 57.6706 18.9948 57.0091 18.3322 56.5681L18.1113 56.3476C17.6696 56.1271 17.2279 55.9065 16.7861 55.686V56.1271C16.7861 56.1271 16.1235 56.1271 15.6818 56.5681C15.4609 56.7886 15.4609 57.0091 15.4609 57.4501C15.4609 57.8911 15.4609 59.8757 15.4609 59.8757C15.4609 59.8757 15.4609 60.7577 16.3444 60.9782C16.5653 60.9782 17.007 60.9782 17.4487 60.9782C18.5531 60.9782 19.6574 60.9782 19.6574 60.9782C19.6574 60.9782 20.0991 60.9782 20.32 60.7577C20.5409 60.7577 20.5409 60.5372 20.5409 60.3167C20.7617 59.8757 20.5409 59.6552 20.7617 59.4347C20.7617 59.4347 20.9826 59.2142 20.7617 59.2142C20.7617 59.2142 20.9826 59.2142 20.7617 59.2142Z" fill="#BA1622"/>
<path d="M38.4322 58.3322C35.7818 57.8912 32.2479 57.2296 30.0392 56.5681H21.8672C22.3089 56.7886 23.4133 57.2296 24.2967 57.4501C26.5054 58.1117 30.0392 58.9937 41.3034 60.0962C54.5554 61.1988 71.3413 61.8603 71.3413 61.8603H68.2491H72.8873C66.4822 61.6398 54.9972 60.3167 52.7885 60.0962C50.5798 59.8757 42.4078 58.7732 38.4322 58.3322Z" fill="#E22D36"/>
<path d="M41.0832 60.0962C30.0399 59.2142 26.2852 58.1117 24.0765 57.4501C23.193 57.2296 22.3096 56.7886 21.647 56.5681H20.1009H18.5548H18.334C18.9966 57.0091 19.4383 57.6707 19.88 58.1117C20.1009 58.3322 20.3218 58.3322 20.3218 58.5527C20.5426 58.7732 20.7635 58.9937 20.7635 59.2142C20.9844 59.6552 21.4261 60.0962 21.647 60.5372C21.8678 61.1988 22.0887 61.8603 22.0887 61.8603H41.9667H68.2498H71.3419C71.1211 61.8603 54.3352 61.1988 41.0832 60.0962Z" fill="#BA1622"/>
<path d="M15.2412 41.794H13.916V44.4401H15.2412V41.794Z" fill="#235FA6"/>
<path d="M23.8543 41.794H22.75V44.4401H23.8543V41.794Z" fill="#235FA6"/>
<path d="M25.62 41.794H24.5156V44.4401H25.62V41.794Z" fill="#235FA6"/>
<path d="M63.1684 43.117H62.5059V44.2195H63.1684V43.117Z" fill="#235FA6"/>
<path d="M64.7134 43.117H64.0508V44.2195H64.7134V43.117Z" fill="#235FA6"/>
<path d="M73.5493 43.117H72.8867V44.2195H73.5493V43.117Z" fill="#235FA6"/>
<path d="M342.563 41.1324H344.551V40.2504H338.587V33.6351H341.459V31.4301H336.82C336.82 31.4301 335.716 31.4301 335.937 32.5326C335.937 33.6351 336.82 33.6351 336.82 33.6351H337.925V40.2504H333.507V38.4863H334.391V37.1633H331.961V38.4863H332.845V40.2504H325.777L325.556 6.73315H324.673L323.789 40.2504L320.697 41.5734C320.697 41.5734 323.127 41.5734 324.894 42.4555C326.219 43.117 333.507 46.4246 333.507 46.4246H343.888V42.8965H342.563V41.1324Z" fill="white"/>
<path d="M344.55 41.794V41.1325H342.562V43.1171H343.888V41.794H344.55Z" fill="#235FA6"/>
<path d="M319.594 22.1688H318.932V41.794H319.594V22.1688Z" fill="white"/>
<path d="M331.741 41.1325H330.195V42.8966H331.741V41.1325Z" fill="#235FA6"/>
<path d="M335.055 41.1325H332.404V42.8966H335.055V41.1325Z" fill="#235FA6"/>
<path d="M338.367 41.1325H335.717V42.8966H338.367V41.1325Z" fill="#235FA6"/>
<path d="M341.901 43.1171C341.901 43.1171 338.809 42.4555 339.471 42.676C340.134 42.8965 338.809 42.4555 338.809 42.4555V41.353H342.122V43.1171H341.901Z" fill="#235FA6"/>
<path d="M329.091 51.2759H68.4688V45.7632H329.091V51.2759ZM68.6896 51.0554H328.87V45.9837H68.6896V51.0554Z" fill="white"/>
<path d="M329.534 45.7632H328.65V45.9837H329.534V45.7632Z" fill="white"/>
<path d="M327.322 45.7632H327.102V49.2913H327.322V45.7632Z" fill="white"/>
<path d="M325.558 45.7632H325.338V49.2913H325.558V45.7632Z" fill="white"/>
<path d="M323.789 45.7632H323.568V49.2913H323.789V45.7632Z" fill="white"/>
<path d="M322.244 45.7632H322.023V49.2913H322.244V45.7632Z" fill="white"/>
<path d="M320.476 45.7632H320.256V49.2913H320.476V45.7632Z" fill="white"/>
<path d="M318.709 45.7632H318.488V49.2913H318.709V45.7632Z" fill="white"/>
<path d="M316.943 45.7632H316.723V49.2913H316.943V45.7632Z" fill="white"/>
<path d="M315.175 45.7632H314.955V49.2913H315.175V45.7632Z" fill="white"/>
<path d="M313.631 45.7632H313.41V49.2913H313.631V45.7632Z" fill="white"/>
<path d="M311.863 45.7632H311.643V49.2913H311.863V45.7632Z" fill="white"/>
<path d="M310.097 45.7632H309.877V49.2913H310.097V45.7632Z" fill="white"/>
<path d="M308.33 45.7632H308.109V49.2913H308.33V45.7632Z" fill="white"/>
<path d="M306.56 45.7632H306.34V49.2913H306.56V45.7632Z" fill="white"/>
<path d="M305.015 45.7632H304.795V49.2913H305.015V45.7632Z" fill="white"/>
<path d="M303.248 45.7632H303.027V49.2913H303.248V45.7632Z" fill="white"/>
<path d="M301.482 45.7632H301.262V49.2913H301.482V45.7632Z" fill="white"/>
<path d="M299.715 45.7632H299.494V49.2913H299.715V45.7632Z" fill="white"/>
<path d="M297.949 45.7632H297.729V49.2913H297.949V45.7632Z" fill="white"/>
<path d="M296.181 45.7632H295.961V49.2913H296.181V45.7632Z" fill="white"/>
<path d="M294.636 45.7632H294.416V49.2913H294.636V45.7632Z" fill="white"/>
<path d="M292.869 45.7632H292.648V49.2913H292.869V45.7632Z" fill="white"/>
<path d="M291.101 45.7632H290.881V49.2913H291.101V45.7632Z" fill="white"/>
<path d="M289.336 45.7632H289.115V49.2913H289.336V45.7632Z" fill="white"/>
<path d="M287.566 45.7632H287.346V49.2913H287.566V45.7632Z" fill="white"/>
<path d="M286.021 45.7632H285.801V49.2913H286.021V45.7632Z" fill="white"/>
<path d="M284.254 45.7632H284.033V49.2913H284.254V45.7632Z" fill="white"/>
<path d="M282.488 45.7632H282.268V49.2913H282.488V45.7632Z" fill="white"/>
<path d="M280.72 45.7632H280.5V49.2913H280.72V45.7632Z" fill="white"/>
<path d="M278.953 45.7632H278.732V49.2913H278.953V45.7632Z" fill="white"/>
<path d="M277.408 45.7632H277.188V49.2913H277.408V45.7632Z" fill="white"/>
<path d="M275.64 45.7632H275.42V49.2913H275.64V45.7632Z" fill="white"/>
<path d="M273.875 45.7632H273.654V49.2913H273.875V45.7632Z" fill="white"/>
<path d="M272.107 45.7632H271.887V49.2913H272.107V45.7632Z" fill="white"/>
<path d="M270.341 45.7632H270.121V49.2913H270.341V45.7632Z" fill="white"/>
<path d="M268.574 45.7632H268.354V49.2913H268.574V45.7632Z" fill="white"/>
<path d="M267.029 45.7632H266.809V49.2913H267.029V45.7632Z" fill="white"/>
<path d="M265.259 45.7632H265.039V49.2913H265.259V45.7632Z" fill="white"/>
<path d="M263.492 45.7632H263.271V49.2913H263.492V45.7632Z" fill="white"/>
<path d="M261.726 45.7632H261.506V49.2913H261.726V45.7632Z" fill="white"/>
<path d="M259.959 45.7632H259.738V49.2913H259.959V45.7632Z" fill="white"/>
<path d="M258.414 45.7632H258.193V49.2913H258.414V45.7632Z" fill="white"/>
<path d="M256.646 45.7632H256.426V49.2913H256.646V45.7632Z" fill="white"/>
<path d="M254.88 45.7632H254.66V49.2913H254.88V45.7632Z" fill="white"/>
<path d="M253.113 45.7632H252.893V49.2913H253.113V45.7632Z" fill="white"/>
<path d="M251.345 45.7632H251.125V49.2913H251.345V45.7632Z" fill="white"/>
<path d="M249.8 45.7632H249.58V49.2913H249.8V45.7632Z" fill="white"/>
<path d="M248.031 45.7632H247.811V49.2913H248.031V45.7632Z" fill="white"/>
<path d="M246.267 45.7632H246.047V49.2913H246.267V45.7632Z" fill="white"/>
<path d="M244.498 45.7632H244.277V49.2913H244.498V45.7632Z" fill="white"/>
<path d="M242.732 45.7632H242.512V49.2913H242.732V45.7632Z" fill="white"/>
<path d="M241.185 45.7632H240.965V49.2913H241.185V45.7632Z" fill="white"/>
<path d="M239.42 45.7632H239.199V49.2913H239.42V45.7632Z" fill="white"/>
<path d="M237.652 45.7632H237.432V49.2913H237.652V45.7632Z" fill="white"/>
<path d="M235.885 45.7632H235.664V49.2913H235.885V45.7632Z" fill="white"/>
<path d="M234.119 45.7632H233.898V49.2913H234.119V45.7632Z" fill="white"/>
<path d="M232.351 45.7632H232.131V49.2913H232.351V45.7632Z" fill="white"/>
<path d="M230.806 45.7632H230.586V49.2913H230.806V45.7632Z" fill="white"/>
<path d="M229.037 45.7632H228.816V49.2913H229.037V45.7632Z" fill="white"/>
<path d="M227.273 45.7632H227.053V49.2913H227.273V45.7632Z" fill="white"/>
<path d="M225.504 45.7632H225.283V49.2913H225.504V45.7632Z" fill="white"/>
<path d="M223.736 45.7632H223.516V49.2913H223.736V45.7632Z" fill="white"/>
<path d="M222.191 45.7632H221.971V49.2913H222.191V45.7632Z" fill="white"/>
<path d="M220.423 45.7632H220.203V49.2913H220.423V45.7632Z" fill="white"/>
<path d="M218.658 45.7632H218.438V49.2913H218.658V45.7632Z" fill="white"/>
<path d="M216.89 45.7632H216.67V49.2913H216.89V45.7632Z" fill="white"/>
<path d="M215.125 45.7632H214.904V49.2913H215.125V45.7632Z" fill="white"/>
<path d="M213.576 45.7632H213.355V49.2913H213.576V45.7632Z" fill="white"/>
<path d="M211.812 45.7632H211.592V49.2913H211.812V45.7632Z" fill="white"/>
<path d="M210.043 45.7632H209.822V49.2913H210.043V45.7632Z" fill="white"/>
<path d="M208.275 45.7632H208.055V49.2913H208.275V45.7632Z" fill="white"/>
<path d="M206.51 45.7632H206.289V49.2913H206.51V45.7632Z" fill="white"/>
<path d="M204.963 45.7632H204.742V49.2913H204.963V45.7632Z" fill="white"/>
<path d="M203.197 45.7632H202.977V49.2913H203.197V45.7632Z" fill="white"/>
<path d="M201.429 45.7632H201.209V49.2913H201.429V45.7632Z" fill="white"/>
<path d="M199.664 45.7632H199.443V49.2913H199.664V45.7632Z" fill="white"/>
<path d="M197.896 45.7632H197.676V49.2913H197.896V45.7632Z" fill="white"/>
<path d="M196.129 45.7632H195.908V49.2913H196.129V45.7632Z" fill="white"/>
<path d="M194.584 45.7632H194.363V49.2913H194.584V45.7632Z" fill="white"/>
<path d="M192.814 45.7632H192.594V49.2913H192.814V45.7632Z" fill="white"/>
<path d="M191.05 45.7632H190.83V49.2913H191.05V45.7632Z" fill="white"/>
<path d="M189.281 45.7632H189.061V49.2913H189.281V45.7632Z" fill="white"/>
<path d="M187.515 45.7632H187.295V49.2913H187.515V45.7632Z" fill="white"/>
<path d="M185.968 45.7632H185.748V49.2913H185.968V45.7632Z" fill="white"/>
<path d="M184.203 45.7632H183.982V49.2913H184.203V45.7632Z" fill="white"/>
<path d="M182.435 45.7632H182.215V49.2913H182.435V45.7632Z" fill="white"/>
<path d="M180.668 45.7632H180.447V49.2913H180.668V45.7632Z" fill="white"/>
<path d="M178.902 45.7632H178.682V49.2913H178.902V45.7632Z" fill="white"/>
<path d="M177.353 45.7632H177.133V49.2913H177.353V45.7632Z" fill="white"/>
<path d="M175.589 45.7632H175.369V49.2913H175.589V45.7632Z" fill="white"/>
<path d="M173.82 45.7632H173.6V49.2913H173.82V45.7632Z" fill="white"/>
<path d="M172.056 45.7632H171.836V49.2913H172.056V45.7632Z" fill="white"/>
<path d="M170.287 45.7632H170.066V49.2913H170.287V45.7632Z" fill="white"/>
<path d="M168.742 45.7632H168.521V49.2913H168.742V45.7632Z" fill="white"/>
<path d="M166.974 45.7632H166.754V49.2913H166.974V45.7632Z" fill="white"/>
<path d="M165.207 45.7632H164.986V49.2913H165.207V45.7632Z" fill="white"/>
<path d="M163.441 45.7632H163.221V49.2913H163.441V45.7632Z" fill="white"/>
<path d="M161.674 45.7632H161.453V49.2913H161.674V45.7632Z" fill="white"/>
<path d="M159.908 45.7632H159.688V49.2913H159.908V45.7632Z" fill="white"/>
<path d="M158.361 45.7632H158.141V49.2913H158.361V45.7632Z" fill="white"/>
<path d="M156.595 45.7632H156.375V49.2913H156.595V45.7632Z" fill="white"/>
<path d="M154.828 45.7632H154.607V49.2913H154.828V45.7632Z" fill="white"/>
<path d="M153.058 45.7632H152.838V49.2913H153.058V45.7632Z" fill="white"/>
<path d="M151.293 45.7632H151.072V49.2913H151.293V45.7632Z" fill="white"/>
<path d="M149.746 45.7632H149.525V49.2913H149.746V45.7632Z" fill="white"/>
<path d="M147.98 45.7632H147.76V49.2913H147.98V45.7632Z" fill="white"/>
<path d="M146.213 45.7632H145.992V49.2913H146.213V45.7632Z" fill="white"/>
<path d="M144.447 45.7632H144.227V49.2913H144.447V45.7632Z" fill="white"/>
<path d="M142.679 45.7632H142.459V49.2913H142.679V45.7632Z" fill="white"/>
<path d="M141.134 45.7632H140.914V49.2913H141.134V45.7632Z" fill="white"/>
<path d="M139.367 45.7632H139.146V49.2913H139.367V45.7632Z" fill="white"/>
<path d="M137.599 45.7632H137.379V49.2913H137.599V45.7632Z" fill="white"/>
<path d="M135.834 45.7632H135.613V49.2913H135.834V45.7632Z" fill="white"/>
<path d="M134.064 45.7632H133.844V49.2913H134.064V45.7632Z" fill="white"/>
<path d="M132.301 45.7632H132.08V49.2913H132.301V45.7632Z" fill="white"/>
<path d="M130.752 45.7632H130.531V49.2913H130.752V45.7632Z" fill="white"/>
<path d="M128.986 45.7632H128.766V49.2913H128.986V45.7632Z" fill="white"/>
<path d="M127.218 45.7632H126.998V49.2913H127.218V45.7632Z" fill="white"/>
<path d="M125.451 45.7632H125.23V49.2913H125.451V45.7632Z" fill="white"/>
<path d="M123.685 45.7632H123.465V49.2913H123.685V45.7632Z" fill="white"/>
<path d="M122.138 45.7632H121.918V49.2913H122.138V45.7632Z" fill="white"/>
<path d="M120.373 45.7632H120.152V49.2913H120.373V45.7632Z" fill="white"/>
<path d="M118.605 45.7632H118.385V49.2913H118.605V45.7632Z" fill="white"/>
<path d="M116.839 45.7632H116.619V49.2913H116.839V45.7632Z" fill="white"/>
<path d="M115.07 45.7632H114.85V49.2913H115.07V45.7632Z" fill="white"/>
<path d="M113.525 45.7632H113.305V49.2913H113.525V45.7632Z" fill="white"/>
<path d="M111.757 45.7632H111.537V49.2913H111.757V45.7632Z" fill="white"/>
<path d="M109.99 45.7632H109.77V49.2913H109.99V45.7632Z" fill="white"/>
<path d="M108.224 45.7632H108.004V49.2913H108.224V45.7632Z" fill="white"/>
<path d="M106.457 45.7632H106.236V49.2913H106.457V45.7632Z" fill="white"/>
<path d="M104.912 45.7632H104.691V49.2913H104.912V45.7632Z" fill="white"/>
<path d="M103.144 45.7632H102.924V49.2913H103.144V45.7632Z" fill="white"/>
<path d="M101.379 45.7632H101.158V49.2913H101.379V45.7632Z" fill="white"/>
<path d="M99.611 45.7632H99.3906V49.2913H99.611V45.7632Z" fill="white"/>
<path d="M97.8415 45.7632H97.6211V49.2913H97.8415V45.7632Z" fill="white"/>
<path d="M96.0778 45.7632H95.8574V49.2913H96.0778V45.7632Z" fill="white"/>
<path d="M94.529 45.7632H94.3086V49.2913H94.529V45.7632Z" fill="white"/>
<path d="M92.7633 45.7632H92.543V49.2913H92.7633V45.7632Z" fill="white"/>
<path d="M90.9958 45.7632H90.7754V49.2913H90.9958V45.7632Z" fill="white"/>
<path d="M89.2301 45.7632H89.0098V49.2913H89.2301V45.7632Z" fill="white"/>
<path d="M87.4626 45.7632H87.2422V49.2913H87.4626V45.7632Z" fill="white"/>
<path d="M85.9176 45.7632H85.6973V49.2913H85.9176V45.7632Z" fill="white"/>
<path d="M84.1501 45.7632H83.9297V49.2913H84.1501V45.7632Z" fill="white"/>
<path d="M82.3825 45.7632H82.1621V49.2913H82.3825V45.7632Z" fill="white"/>
<path d="M80.6168 45.7632H80.3965V49.2913H80.6168V45.7632Z" fill="white"/>
<path d="M78.8493 45.7632H78.6289V49.2913H78.8493V45.7632Z" fill="white"/>
<path d="M77.3025 45.7632H77.082V49.2913H77.3025V45.7632Z" fill="white"/>
<path d="M75.5349 45.7632H75.3145V49.2913H75.5349V45.7632Z" fill="white"/>
<path d="M73.7692 45.7632H73.5488V49.2913H73.7692V45.7632Z" fill="white"/>
<path d="M72.0016 45.7632H71.7812V49.2913H72.0016V45.7632Z" fill="white"/>
<path d="M70.2341 45.7632H70.0137V49.2913H70.2341V45.7632Z" fill="white"/>
<path d="M328.87 47.0862H68.4688V47.3067H328.87V47.0862Z" fill="white"/>
<path d="M328.87 47.7477H68.4688V47.9682H328.87V47.7477Z" fill="white"/>
<path d="M353.386 45.3221L350.957 46.4247H329.312C329.091 46.8657 328.649 47.3067 328.428 47.5272C328.207 47.7477 327.103 48.6298 327.103 48.6298H56.5418V46.6452H51.0201V48.6298H29.3752L26.0622 46.6452L0 46.8657V52.3784C0 52.8194 1.10433 53.2604 2.20866 53.4809C3.53386 53.4809 5.74253 53.922 5.74253 53.922C5.74253 53.922 8.61379 54.1425 13.0311 54.5835C14.5772 54.804 15.9024 55.245 17.0067 55.686C17.2276 55.9065 17.6693 56.127 18.111 56.3476L18.3319 56.5681H18.5528H20.0988H21.8658H30.2587H356.92C357.804 55.4655 358.466 54.363 359.129 53.2604C360.454 50.8349 362.221 45.3221 362.221 45.3221H353.386Z" fill="#235FA6"/>
<path d="M13.9146 45.7632H5.30078V47.3067H13.9146V45.7632Z" fill="#235FA6"/>
<path d="M6.40625 46.8657V45.7632H7.51058L7.73145 44.2196H11.4862V46.8657H6.40625Z" fill="white"/>
</g>
<path d="M72.6035 13.9654V0.909668L95.6036 7.43657L72.6035 13.9654Z" fill="#E22833"/>
<path d="M77.2047 4.84766L76.3592 6.59283L74.4707 6.87171L75.8382 8.23211L75.5146 10.1512L77.2047 9.24461L78.8957 10.1512L78.5712 8.23211L79.9396 6.87171L78.0502 6.59283L77.2047 4.84766Z" fill="white"/>
<defs>
<clipPath id="clip0_1327_23634">
<rect width="362" height="60.8603" fill="white" transform="translate(0 1)"/>
</clipPath>
</defs>
</svg>
