<svg xmlns="http://www.w3.org/2000/svg" xmlns:xlink="http://www.w3.org/1999/xlink">
    <symbol viewBox="0 0 60 60" id="icon_01" xmlns="http://www.w3.org/2000/svg">
        <g clip-path="url(#clip0_670_1291)">
            <path d="M8.5 41.5C11.7143 41.5 12.7857 38.5 16 38.5C19.2143 38.5 20.2857 41.5 23.5 41.5" stroke="#7A889C"
                stroke-width="2" />
            <path d="M8.5 50.5C11.7143 50.5 12.7857 47.5 16 47.5C19.2143 47.5 20.2857 50.5 23.5 50.5" stroke="#7A889C"
                stroke-width="2" />
            <path d="M23.5 41.5C26.7143 41.5 27.7857 38.5 31 38.5C34.2143 38.5 35.2857 41.5 38.5 41.5" stroke="#7A889C"
                stroke-width="2" />
            <path d="M23.5 50.5C26.7143 50.5 27.7857 47.5 31 47.5C34.2143 47.5 35.2857 50.5 38.5 50.5" stroke="#7A889C"
                stroke-width="2" />
            <path d="M23.5 58.5C26.7143 58.5 27.7857 55.5 31 55.5C34.2143 55.5 35.2857 58.5 38.5 58.5" stroke="#7A889C"
                stroke-width="2" />
            <path d="M38.5 41.5C41.7143 41.5 42.7857 38.5 46 38.5C49.2143 38.5 50.2857 41.5 53.5 41.5" stroke="#7A889C"
                stroke-width="2" />
            <path d="M38.5 50.5C41.7143 50.5 42.7857 47.5 46 47.5C49.2143 47.5 50.2857 50.5 53.5 50.5" stroke="#7A889C"
                stroke-width="2" />
            <path d="M53.5 41.5C56.5 41.5 57.5 38.5 60.5 38.5" stroke="#7A889C" stroke-width="2" />
            <path d="M53.5 50.5C56.5 50.5 57.5 47.5 60.5 47.5" stroke="#7A889C" stroke-width="2" />
            <path d="M38.5 58.5C41.5 58.5 42.5 55.5 45.5 55.5" stroke="#7A889C" stroke-width="2" />
            <path d="M8.5 41.5C5.5 41.5 4.5 38.5 1.5 38.5" stroke="#7A889C" stroke-width="2" />
            <path d="M8.5 50.5C5.5 50.5 4.5 47.5 1.5 47.5" stroke="#7A889C" stroke-width="2" />
            <path d="M23.5 58.5C20.5 58.5 19.5 55.5 16.5 55.5" stroke="#7A889C" stroke-width="2" />
            <path
                d="M20 40C18.1667 38.3333 14.5 33.5 14.5 27.5C14.5 24.3 14.5 22.1667 14.5 21.5L31 15L47.5 21.5V27.5C47.5 30.3333 46.3 36.9 41.5 40.5"
                stroke="#7A889C" stroke-width="2" />
            <path d="M14.5 29L31 22.5L47.5 29" stroke="#7A889C" />
            <path d="M18.5 19.5V9.5H43V19.5" stroke="#7A889C" stroke-width="2" />
            <path d="M27.5 9.5V3.5H34.5V9.5" stroke="#7A889C" stroke-width="2" />
            <path d="M31 15.5V38" stroke="#7A889C" />
        </g>
        <defs>
            <clipPath id="clip0_670_1291">
                <rect width="60" height="60" fill="white" transform="translate(0.5 0.5)" />
            </clipPath>
        </defs>
    </symbol>
    <symbol viewBox="0 0 60 60" id="icon_02" xmlns="http://www.w3.org/2000/svg">
        <path id="Vector" d="M17.3 26.9V12.6198L30.5 5.29999L43.7 12.6198V26.9" stroke="#7A889C" stroke-width="2" />
        <path id="Vector_2" d="M43.7 26.9L30.5 33.8605V47.4396L43.7 54.5L56.9 47.4396V33.8605L43.7 26.9Z"
            stroke="#7A889C" stroke-width="2" />
        <path id="Vector_3" d="M17.3 26.9L4.09998 33.8605V47.4396L17.3 54.5L30.5 47.4396V33.8605L17.3 26.9Z"
            stroke="#7A889C" stroke-width="2" />
        <path id="Vector_4" d="M30.5 34.1V19.6913L17.3 12.5" stroke="#7A889C" />
        <path id="Vector_5" d="M43.7 55.7V41.2913L30.5 34.1" stroke="#7A889C" />
        <path id="Vector_6" d="M17.3 55.7V41.2913L4.09998 34.1" stroke="#7A889C" />
        <path id="Vector_7" d="M43.7 12.5L30.5 19.7" stroke="#7A889C" />
        <path id="Vector_8" d="M56.9 34.1L43.7 41.3" stroke="#7A889C" />
        <path id="Vector_9" d="M30.5 34.1L17.3 41.3" stroke="#7A889C" />
    </symbol>
    <symbol viewBox="0 0 60 60" id="icon_03" xmlns="http://www.w3.org/2000/svg">
        <path id="Icon"
            d="M40 15.5C40 12.8478 38.9464 10.3043 37.0711 8.42893C35.1957 6.55357 32.6522 5.5 30 5.5C27.3478 5.5 24.8043 6.55357 22.9289 8.42893C21.0536 10.3043 20 12.8478 20 15.5M12.1154 15.5L7.5 50.5C7.5 51.8261 8.02678 53.0979 8.96447 54.0355C9.90215 54.9732 11.1739 55.5 12.5 55.5H47.5C48.8261 55.5 50.0979 54.9732 51.0355 54.0355C51.9732 53.0979 52.5 51.8261 52.5 50.5L47.8846 15.5H12.1154Z"
            stroke="#7A889C" stroke-width="2" />
        <path id="Vector 110" d="M20.5 28.5H40.5" stroke="#7A889C" stroke-width="2" />
        <path id="Vector 111" d="M30.5 46.5V28.5" stroke="#7A889C" stroke-width="2" />
    </symbol>
    <symbol viewBox="0 0 60 60" id="icon_04" xmlns="http://www.w3.org/2000/svg">
        <path d="M10 34H51.5" stroke="#7A889C" stroke-width="2" />
        <path d="M10 41H51.5" stroke="#7A889C" />
        <path
            d="M26 17H33C33.5 17 34.5 17.6936 34.5 19C34.5 20.4239 33.5989 20.9467 33.0798 20.9961M30.5 21C31.1667 21 32.6 21 33 21C33.0254 21 33.052 20.9987 33.0798 20.9961M24.5 24L30.5 29L35 24.5C35.5 24 35.5 21 33.0798 20.9961M30.5 28.5V17.5"
            stroke="#7A889C" />
        <path d="M10 27V42C10.8333 44.8333 16.2 50.5 31 50.5C45.8 50.5 50.8333 44.8333 51.5 42V27" stroke="#7A889C"
            stroke-width="2" />
        <path
            d="M10 33.3331C5.73857 31.3217 3.5 28.74 3.5 26.2667C3.5 16.2151 15.5883 9 30.5 9C45.4117 9 57.5 16.2151 57.5 26.2667C57.5 28.6414 55.4364 31.116 51.5 33.0899"
            stroke="#7A889C" stroke-width="2" />
        <circle cx="30.5" cy="14" r="2" stroke="#7A889C" />
    </symbol>
    <symbol viewBox="0 0 60 60" id="icon_05" xmlns="http://www.w3.org/2000/svg">
        <path id="Vector 133" d="M5.30005 45V23.4L38.9001 7.80005L55.7001 15V35.4L23.3 52.2001L5.30005 45Z"
            stroke="#7A889C" stroke-width="2" />
        <path id="Vector 135" d="M5.30005 24L23.3 31.2M23.3 31.2V52.2M23.3 31.2L55.7001 15" stroke="#7A889C"
            stroke-width="2" />
        <path id="Vector 136" d="M13.7 27.6V48.6" stroke="#7A889C" />
        <path id="Vector 137" d="M30.5 32.4V43.8" stroke="#7A889C" />
        <path id="Vector 138" d="M38.8999 27.6V39" stroke="#7A889C" />
        <path id="Vector 139" d="M47.3 22.8V34.2" stroke="#7A889C" />
    </symbol>
    <symbol viewBox="0 0 60 60" id="icon_06" xmlns="http://www.w3.org/2000/svg">
        <path d="M31 5V10" stroke="#7A889C" stroke-width="2" />
        <path d="M42.5259 7.43481L40.5038 12.0077" stroke="#7A889C" stroke-width="2" />
        <path d="M51.8184 14.0364L48.1659 17.451" stroke="#7A889C" stroke-width="2" />
        <path d="M57.7837 23.7598L53.0848 25.4686" stroke="#7A889C" stroke-width="2" />
        <path d="M19.7578 7.43481L21.7799 12.0077" stroke="#7A889C" stroke-width="2" />
        <path d="M10.4653 14.0364L14.1177 17.451" stroke="#7A889C" stroke-width="2" />
        <path d="M4.5 23.7598L9.19894 25.4686" stroke="#7A889C" stroke-width="2" />
        <path d="M8.5 38C11.7143 38 12.7857 35 16 35C19.2143 35 20.2857 38 23.5 38" stroke="#7A889C" stroke-width="2" />
        <path d="M8.5 47C11.7143 47 12.7857 44 16 44C19.2143 44 20.2857 47 23.5 47" stroke="#7A889C" stroke-width="2" />
        <path d="M23.5 38C26.7143 38 27.7857 35 31 35C34.2143 35 35.2857 38 38.5 38" stroke="#7A889C"
            stroke-width="2" />
        <path d="M23.5 47C26.7143 47 27.7857 44 31 44C34.2143 44 35.2857 47 38.5 47" stroke="#7A889C"
            stroke-width="2" />
        <path d="M23.5 55C26.7143 55 27.7857 52 31 52C34.2143 52 35.2857 55 38.5 55" stroke="#7A889C"
            stroke-width="2" />
        <path d="M38.5 38C41.7143 38 42.7857 35 46 35C49.2143 35 50.2857 38 53.5 38" stroke="#7A889C"
            stroke-width="2" />
        <path d="M38.5 47C41.7143 47 42.7857 44 46 44C49.2143 44 50.2857 47 53.5 47" stroke="#7A889C"
            stroke-width="2" />
        <path d="M53.5 38C56.5 38 57.5 35 60.5 35" stroke="#7A889C" stroke-width="2" />
        <path d="M53.5 47C56.5 47 57.5 44 60.5 44" stroke="#7A889C" stroke-width="2" />
        <path d="M38.5 55C41.5 55 42.5 52 45.5 52" stroke="#7A889C" stroke-width="2" />
        <path d="M8.5 38C5.5 38 4.5 35 1.5 35" stroke="#7A889C" stroke-width="2" />
        <path d="M8.5 47C5.5 47 4.5 44 1.5 44" stroke="#7A889C" stroke-width="2" />
        <path d="M23.5 55C20.5 55 19.5 52 16.5 52" stroke="#7A889C" stroke-width="2" />
        <path d="M50.5 35.5C50.5 24.7304 41.7696 16 31 16C20.2304 16 11.5 24.7304 11.5 35.5" stroke="#7A889C"
            stroke-width="2" />
    </symbol>
    <symbol viewBox="0 0 60 60" id="icon_07" xmlns="http://www.w3.org/2000/svg">
        <circle id="Ellipse 47" cx="30.5001" cy="30" r="26.4" stroke="#7A889C" stroke-width="2" />
        <path id="Line 1 (Stroke)" fill-rule="evenodd" clip-rule="evenodd"
            d="M44.5 22.1427L27.9883 41L17.5 31.0181L19.8318 28.658L27.7664 36.2095L41.9596 20L44.5 22.1427Z"
            stroke="#7A889C" />
    </symbol>
    <symbol viewBox="0 0 60 60" id="icon_08" xmlns="http://www.w3.org/2000/svg">
        <g id="icons" clip-path="url(#clip0_670_1350)">
            <path id="Vector 161"
                d="M15.5 32C13.3521 30.8284 10.5 29 10.5 29V22C10.5 22 40.2022 22 50.5 22C50.5 25.5 50 29 44.5 32"
                stroke="#7A889C" stroke-width="2" />
            <path id="Vector 162" d="M46.5 22V15H26.5V21.5M19.5 22V16H12.5V22" stroke="#7A889C" stroke-width="2" />
            <path id="Vector 163" d="M15.5 11V16" stroke="#7A889C" />
            <path id="Vector 210" d="M11 26H50" stroke="#7A889C" />
            <path id="Vector 175" d="M7.5 35C10.7143 35 11.7857 32 15 32C18.2143 32 19.2857 35 22.5 35" stroke="#7A889C"
                stroke-width="2" />
            <path id="Vector 180" d="M7.5 44C10.7143 44 11.7857 41 15 41C18.2143 41 19.2857 44 22.5 44" stroke="#7A889C"
                stroke-width="2" />
            <path id="Vector 176" d="M22.5 35C25.7143 35 26.7857 32 30 32C33.2143 32 34.2857 35 37.5 35"
                stroke="#7A889C" stroke-width="2" />
            <path id="Vector 181" d="M22.5 44C25.7143 44 26.7857 41 30 41C33.2143 41 34.2857 44 37.5 44"
                stroke="#7A889C" stroke-width="2" />
            <path id="Vector 186" d="M22.5 52C25.7143 52 26.7857 49 30 49C33.2143 49 34.2857 52 37.5 52"
                stroke="#7A889C" stroke-width="2" />
            <path id="Vector 177" d="M37.5 35C40.7143 35 41.7857 32 45 32C48.2143 32 49.2857 35 52.5 35"
                stroke="#7A889C" stroke-width="2" />
            <path id="Vector 182" d="M37.5 44C40.7143 44 41.7857 41 45 41C48.2143 41 49.2857 44 52.5 44"
                stroke="#7A889C" stroke-width="2" />
            <path id="Vector 178" d="M52.5 35C55.5 35 56.5 32 59.5 32" stroke="#7A889C" stroke-width="2" />
            <path id="Vector 183" d="M52.5 44C55.5 44 56.5 41 59.5 41" stroke="#7A889C" stroke-width="2" />
            <path id="Vector 188" d="M37.5 52C40.5 52 41.5 49 44.5 49" stroke="#7A889C" stroke-width="2" />
            <path id="Vector 179" d="M7.5 35C4.5 35 3.5 32 0.5 32" stroke="#7A889C" stroke-width="2" />
            <path id="Vector 184" d="M7.5 44C4.5 44 3.5 41 0.5 41" stroke="#7A889C" stroke-width="2" />
            <path id="Vector 189" d="M22.5 52C19.5 52 18.5 49 15.5 49" stroke="#7A889C" stroke-width="2" />
        </g>
        <defs>
            <clipPath id="clip0_670_1350">
                <rect width="60" height="60" fill="white" transform="translate(0.5)" />
            </clipPath>
        </defs>
    </symbol>
    <symbol viewBox="0 0 60 60" id="icon_09" xmlns="http://www.w3.org/2000/svg">
        <ellipse id="Ellipse 128" cx="30.5" cy="12.5" rx="21" ry="9.5" stroke="#7A889C" stroke-width="2" />
        <path id="Ellipse 129" d="M51.5 30C51.5 34.9706 42.098 39 30.5 39C18.902 39 9.5 34.9706 9.5 30" stroke="#7A889C"
            stroke-width="2" />
        <path id="Ellipse 130" d="M51.5 48C51.5 52.9706 42.098 57 30.5 57C18.902 57 9.5 52.9706 9.5 48" stroke="#7A889C"
            stroke-width="2" />
        <path id="Vector 240" d="M10.5 30V16" stroke="#7A889C" stroke-width="2" />
        <path id="Vector 242" d="M10.5 48V34" stroke="#7A889C" stroke-width="2" />
        <path id="Vector 241" d="M50.5 30V16" stroke="#7A889C" stroke-width="2" />
        <path id="Vector 243" d="M50.5 48V34" stroke="#7A889C" stroke-width="2" />
    </symbol>
    <symbol viewBox="0 0 60 60" id="icon_10" xmlns="http://www.w3.org/2000/svg">
        <g id="icons" clip-path="url(#clip0_670_1559)">
            <path id="Vector 112"
                d="M9.5 32H26.7767C29.505 32 31.7167 34.2117 31.7167 36.94V36.94C31.7167 39.6683 29.505 41.88 26.7767 41.88H24.81C22.2916 41.88 20.25 43.9216 20.25 46.44V46.44C20.25 48.9584 22.2916 51 24.81 51H52.5"
                stroke="#7A889C" stroke-width="2" />
            <path id="Rectangle 10"
                d="M6.28828 9.78838C9.48511 6.59155 14.6682 6.59155 17.865 9.78838V9.78838C21.0619 12.9852 21.0619 18.1683 17.865 21.3651L12.0767 27.1535L6.28828 21.3652C3.09144 18.1683 3.09144 12.9852 6.28828 9.78838V9.78838Z"
                stroke="#7A889C" stroke-width="2" />
            <path id="Rectangle 11"
                d="M43.3936 27.3978C46.5905 24.2009 51.7736 24.2009 54.9704 27.3978V27.3978C58.1672 30.5946 58.1672 35.7777 54.9704 38.9745L49.182 44.7629L43.3936 38.9745C40.1968 35.7777 40.1968 30.5946 43.3936 27.3978V27.3978Z"
                stroke="#7A889C" stroke-width="2" />
        </g>
        <defs>
            <clipPath id="clip0_670_1559">
                <rect width="60" height="60" fill="white" transform="translate(0.5)" />
            </clipPath>
        </defs>
    </symbol>
    <symbol viewBox="0 0 60 60" id="icon_11" xmlns="http://www.w3.org/2000/svg">
        <path id="Rectangle 12" d="M57.5 54V11H3.5V54" stroke="#7A889C" stroke-width="2" />
        <path id="Vector 164" d="M7.5 10V5H16.5V10" stroke="#7A889C" stroke-width="2" />
        <path id="Vector 165" d="M26.5 10V5H34.5V10" stroke="#7A889C" stroke-width="2" />
        <path id="Vector 166" d="M43.5 10V5H52.5V10" stroke="#7A889C" stroke-width="2" />
        <path id="Rectangle 13" d="M52.5 54L49.0263 18H11.9737L8.5 54" stroke="#7A889C" stroke-width="2" />
        <path id="Vector 167" d="M30.5 17V25" stroke="#7A889C" stroke-width="2" />
        <path id="Vector 168" d="M34.5 25H26.5L28.2143 30H32.7857L34.5 25Z" stroke="#7A889C" stroke-width="2" />
        <path id="Vector 169"
            d="M30.1667 30V32.6667C31.5 32.6667 33.5 33.2 33.5 35.3333C33.5 36.9333 32.8333 38 30.1667 38C28.0333 38 27.5 36.5778 27.5 35.8667"
            stroke="#7A889C" stroke-width="2" />
    </symbol>
    <symbol viewBox="0 0 60 60" id="icon_12" xmlns="http://www.w3.org/2000/svg">
        <circle id="Ellipse 100" cx="13" cy="43.5" r="4.5" stroke="#7A889C" stroke-width="2" />
        <circle id="Ellipse 101" cx="25" cy="43.5" r="4.5" stroke="#7A889C" stroke-width="2" />
        <circle id="Ellipse 102" cx="48" cy="43.5" r="4.5" stroke="#7A889C" stroke-width="2" />
        <path id="Vector 154" d="M32.4556 41H40.8478M54.8556 41H58.5V35H2.5V41H6.23333" stroke="#7A889C"
            stroke-width="2" />
        <path id="Vector 155" d="M42.5 34.6111V11H3.5V36" stroke="#7A889C" stroke-width="2" />
        <path id="Vector 156" d="M43.5 17H53.6818L57.5 23V35" stroke="#7A889C" stroke-width="2" />
        <path id="Vector 157" d="M42.5 24L57.5 24" stroke="#7A889C" />
    </symbol>
    <symbol viewBox="0 0 60 60" id="icon_13" xmlns="http://www.w3.org/2000/svg">
        <circle cx="30.5" cy="30" r="24" stroke="#7A889C" stroke-width="2" />
        <path
            d="M29.0002 42.0001H28.5002V42.5001H29.0002V42.0001ZM29.0002 30.3H29.5002V29.8H29.0002V30.3ZM32.0002 42.0001V42.5001H32.5002V42.0001H32.0002ZM32.0002 30.3V29.8H31.5002V30.3H32.0002ZM43.7001 30.3V30.8H44.2001V30.3H43.7001ZM43.7001 27.3H44.2001V26.8H43.7001V27.3ZM32.0002 27.3H31.5002V27.8H32.0002V27.3ZM32.0002 15.6001H32.5002V15.1001H32.0002V15.6001ZM29.0002 15.6001V15.1001H28.5002V15.6001H29.0002ZM29.0002 27.3V27.8H29.5002V27.3H29.0002ZM17.3001 27.3V26.8H16.8001L16.8001 27.3H17.3001ZM17.3001 30.3H16.8001V30.8H17.3001V30.3ZM29.5002 42.0001V30.3H28.5002V42.0001H29.5002ZM32.0002 41.5001H29.0002V42.5001H32.0002V41.5001ZM31.5002 30.3V42.0001H32.5002V30.3H31.5002ZM43.7001 29.8H32.0002V30.8H43.7001V29.8ZM43.2001 27.3V30.3H44.2001V27.3H43.2001ZM32.0002 27.8H43.7001V26.8H32.0002V27.8ZM31.5002 15.6001V27.3H32.5002V15.6001H31.5002ZM29.0002 16.1001H32.0002V15.1001H29.0002V16.1001ZM29.5002 27.3V15.6001H28.5002V27.3H29.5002ZM17.3001 27.8H29.0002V26.8H17.3001V27.8ZM17.8001 30.3L17.8001 27.3H16.8001L16.8001 30.3H17.8001ZM29.0002 29.8H17.3001V30.8H29.0002V29.8Z"
            fill="#7A889C" />
    </symbol>
    <symbol viewBox="0 0 60 60" id="icon_14" xmlns="http://www.w3.org/2000/svg">
        <path id="Vector"
            d="M17.3 45.9154L25.7194 52.3832C26.8058 53.4611 29.2501 54.0001 30.8796 54.0001H41.2001C44.4592 54.0001 47.9899 51.5747 48.8047 48.3408L55.3229 28.6681C56.6808 24.8952 54.2365 21.6613 50.1626 21.6613H39.299C37.6694 21.6613 36.3115 20.3139 36.5831 18.4275L37.941 9.8038C38.4842 7.37839 36.8546 4.6835 34.4103 3.87503C32.2376 3.06656 29.5217 4.14452 28.4353 5.76146L17.3 22.2003"
            stroke="#7A889C" stroke-width="2" />
        <path id="Vector_2"
            d="M2.8999 46.4028V19.597C2.8999 15.7675 4.6279 14.3999 8.6599 14.3999H11.5399C15.5719 14.3999 17.2999 15.7675 17.2999 19.597V46.4028C17.2999 50.2323 15.5719 51.5999 11.5399 51.5999H8.6599C4.6279 51.5999 2.8999 50.2323 2.8999 46.4028Z"
            stroke="#7A889C" stroke-width="2" />
    </symbol>
    <symbol viewBox="0 0 60 60" id="icon_fill_01" xmlns="http://www.w3.org/2000/svg">
        <path fill-rule="evenodd" clip-rule="evenodd"
            d="M32.2649 17.7727C38.5618 17.1667 39.1678 16.009 39.1678 13.8333C39.1678 11.6577 38.368 10.5 32.9219 10.5C27.4758 10.5 19.7737 12.6212 19.7739 15.3485C19.7742 18.6818 25.2285 18.45 32.2649 17.7727ZM14.9254 26.9646C14.9254 30.5908 17.1108 33.5303 25.2799 33.5303C33.449 33.5303 44.0159 33.5303 44.0163 27.9747C44.0167 23.4293 32.4635 21.4091 24.2943 21.4091C16.1252 21.4091 14.9254 23.3385 14.9254 26.9646ZM48.2588 42.6212C48.2588 46.9725 45.5725 50.5 35.531 50.5C25.4894 50.5 12.5005 50.5 12.5 43.8333C12.4996 38.3788 26.7009 35.9545 36.7424 35.9545C46.784 35.9545 48.2588 38.2699 48.2588 42.6212Z"
            fill="white" />
    </symbol>
    <symbol viewBox="0 0 60 60" id="icon_fill_02" xmlns="http://www.w3.org/2000/svg">
        <path fill-rule="evenodd" clip-rule="evenodd"
            d="M27.9545 10.5V13.9422L25.3049 12.6174L24.6951 13.837L27.9545 15.4668V16.6695L25.3049 15.3446L24.6951 16.5643L27.9545 18.1941V19.3967L25.3049 18.0719L24.6951 19.2916L27.9545 20.9213V22.124L25.3049 20.7992L24.6951 22.0189L27.9545 23.6486L27.9545 50.5H29.3182L29.3182 23.6229L32.1564 22.001L31.4799 20.817L29.3182 22.0523V20.8956L32.1564 19.2737L31.4799 18.0898L29.3182 19.325V18.1683L32.1564 16.5465L31.4799 15.3625L29.3182 16.5977V15.441L32.1564 13.8192L31.4799 12.6352L29.3182 13.8705V10.5H27.9545ZM33.4091 27.5786V25.0455H34.7727V27.5068L36.9344 26.2716L37.611 27.4555L34.7727 29.0774V30.2341L36.9344 28.9989L37.611 30.1828L34.7727 31.8047V32.9614L36.9344 31.7261L37.611 32.9101L34.7727 34.5319V35.6887L36.9344 34.4534L37.611 35.6374L34.7727 37.2592L34.7727 50.5H33.4091L33.4091 37.285L30.1496 35.6552L30.7594 34.4355L33.4091 35.7604V34.5577L30.1496 32.9279L30.7594 31.7083L33.4091 33.0331V31.8304L30.1496 30.2007L30.7594 28.981L33.4091 30.3058V29.1031L30.1496 27.4734L30.7594 26.2537L33.4091 27.5786ZM25.2273 29.5909V50.5H26.5909V29.5909H25.2273ZM22.5 32.7727V50.5H23.8636V32.7727H22.5ZM30.6818 50.5L30.6818 38.6818H32.0455L32.0455 50.5H30.6818ZM36.1364 41.4091L36.1364 50.5H37.5L37.5 41.4091H36.1364Z"
            fill="white" />
    </symbol>
    <symbol viewBox="0 0 60 60" id="icon_fill_03" xmlns="http://www.w3.org/2000/svg">
        <path fill-rule="evenodd" clip-rule="evenodd"
            d="M16.2884 43.2407C13.8951 33.6677 15.2912 22.1572 16.2884 17.5986C15.2912 16.174 13.3345 12.3874 15.4336 11.1881C18.24 9.58476 19.1661 10.9891 20.6804 13.2854C20.7806 13.4373 20.8834 13.5932 20.9894 13.7523C25.5688 12.2259 31.8517 12.7439 37.1001 13.1766C37.7295 13.2284 38.344 13.2791 38.9389 13.3249C42.7064 7.30683 47.2674 12.7265 43.5 17C46.5771 27.5988 44.7821 40.3688 43.5 44.5C43.6136 44.8125 43.7864 45.1869 43.9738 45.5931C44.7261 47.2236 45.7149 49.3665 44.0674 50.0786C41.5557 51.1643 40.0786 49.3664 38.9389 47.9418C38.7786 47.9647 38.5615 48.0023 38.2902 48.0494C36.8743 48.2949 33.9814 48.7967 29.9646 48.7967C26.0436 48.7967 23.0018 48.3186 21.4034 48.0674L21.4029 48.0673C21.0504 48.0119 20.768 47.9675 20.5621 47.9418C20.3816 48.0997 20.1813 48.2969 19.9636 48.5113L19.9635 48.5113C18.8059 49.6511 17.1536 51.2779 15.3547 50.0786C14.0726 49.2239 14.1516 45.8049 16.2884 43.2407ZM37.5779 30.3851C37.5779 34.6337 34.1338 38.0778 29.8853 38.0778C25.6368 38.0778 22.1926 34.6337 22.1926 30.3851C22.1926 26.1366 25.6368 22.6925 29.8853 22.6925C34.1338 22.6925 37.5779 26.1366 37.5779 30.3851ZM29.458 26.7521C28.3363 26.7521 27.5853 26.9704 27.135 27.4207C26.6783 27.8773 26.6796 28.4313 26.6801 28.6552L26.6801 28.6753L26.6801 28.6905C26.6799 28.7925 26.6796 28.9795 26.7395 29.1834C26.8072 29.4135 26.9363 29.6244 27.135 29.8231C27.5016 30.1897 28.1436 30.5495 29.2199 30.98C30.2805 31.4042 30.7068 31.6855 30.8744 31.8531C30.9109 31.8895 30.9285 31.9144 30.9365 31.9273C30.9438 31.9392 30.9457 31.9453 30.9464 31.9479C30.9501 31.9605 30.9538 31.9783 30.9538 32.0943C30.9538 32.3125 30.9377 32.379 30.8744 32.4423C30.7905 32.5262 30.4732 32.7353 29.458 32.7353C28.7075 32.7353 28.3334 32.5485 28.1589 32.4031C27.9799 32.2539 27.9622 32.1117 27.9622 32.0943H26.6801C26.6801 32.5042 26.8761 33.003 27.3381 33.388C27.8047 33.7768 28.499 34.0174 29.458 34.0174C30.5797 34.0174 31.3307 33.7992 31.781 33.3489C32.2377 32.8922 32.2364 32.3382 32.2359 32.1144L32.2359 32.0943L32.2359 32.079C32.2361 31.9771 32.2364 31.79 32.1765 31.5862C32.1088 31.3561 31.9797 31.1451 31.781 30.9465C31.4144 30.5799 30.7724 30.2201 29.6961 29.7896C28.6355 29.3654 28.2092 29.0841 28.0415 28.9165C28.0051 28.88 27.9875 28.8552 27.9795 28.8422C27.9722 28.8303 27.9703 28.8243 27.9695 28.8216C27.9658 28.8091 27.9622 28.7912 27.9622 28.6753C27.9622 28.457 27.9783 28.3905 28.0415 28.3273C28.1255 28.2434 28.4428 28.0342 29.458 28.0342C30.2085 28.0342 30.5826 28.221 30.7571 28.3665C30.9361 28.5157 30.9538 28.6579 30.9538 28.6753H32.2359C32.2359 28.2654 32.0399 27.7665 31.5779 27.3815C31.1113 26.9927 30.417 26.7521 29.458 26.7521Z"
            fill="white" />
    </symbol>
    <symbol viewBox="0 0 60 60" id="icon_fill_04" xmlns="http://www.w3.org/2000/svg">
        <path fill-rule="evenodd" clip-rule="evenodd"
            d="M35.5781 10.5L35.8963 10.6576C41.7976 13.5797 45.856 19.5869 45.856 26.5331C45.856 33.3218 41.9796 39.2135 36.295 42.2051V50.5H34.8609V42.2053C34.2878 41.9037 33.7331 41.5726 33.1989 41.2141C31.4054 43.3288 28.7515 44.6912 25.778 44.7607V50.5H24.3439V44.693C19.363 44.1021 15.5 39.8643 15.5 34.7245C15.5 29.2278 19.918 24.7627 25.3965 24.6865C26.0436 18.5331 29.8883 13.3173 35.2599 10.6576L35.5781 10.5ZM44.4218 26.5331C44.4218 32.4901 41.1678 37.7096 36.295 40.5648V27.8327L41.3651 22.3017L40.3079 21.3327L36.295 25.7103V19.905H34.8609V31.5592L30.3484 27.0467L29.3344 28.0608L34.8609 33.5873V40.565C29.9881 37.7097 26.7341 32.4903 26.7341 26.5333C26.7341 20.2886 30.3101 14.8544 35.5781 12.1046C40.846 14.8544 44.4218 20.2885 44.4218 26.5331Z"
            fill="white" />
    </symbol>
    <symbol viewBox="0 0 60 60" id="icon_fill_05" xmlns="http://www.w3.org/2000/svg">
        <path
            d="M29.3228 49.1715L32.0684 32.6979C32.2063 31.8705 33.1611 31.471 33.8471 31.9538L46.2023 40.6482C46.9021 41.1406 46.8292 42.2001 46.0685 42.5919L30.9677 50.3711C30.1346 50.8003 29.1687 50.0958 29.3228 49.1715Z"
            fill="white" />
        <path
            d="M45.8792 38.2622L31.9363 28.1656C31.8438 28.0986 31.7618 28.018 31.6932 27.9265L19.9914 12.3242C19.3554 11.4761 20.1212 10.2954 21.1549 10.5303L30.3055 12.61C30.5347 12.6621 30.7423 12.7839 30.8996 12.9587L45.8319 29.5502C45.9632 29.6961 46.0546 29.8734 46.0972 30.065L47.6589 37.0927C47.8862 38.1157 46.7279 38.8768 45.8792 38.2622Z"
            fill="white" />
        <path
            d="M30.5782 30.2504L27.6308 47.9346C27.4739 48.8766 26.297 49.2187 25.6596 48.5076L12.7909 34.1542C12.5661 33.9035 12.4638 33.5662 12.5115 33.2329L15.4615 12.5825C15.6053 11.5756 16.8966 11.248 17.5031 12.0644L30.3691 29.384C30.5536 29.6324 30.6291 29.9452 30.5782 30.2504Z"
            fill="white" />
    </symbol>
    <symbol viewBox="0 0 60 60" id="icon_fill_06" xmlns="http://www.w3.org/2000/svg">
        <path fill-rule="evenodd" clip-rule="evenodd"
            d="M30.6339 11.7587C32.5118 11.7003 34.7249 12.825 36.8021 14.3893C38.8524 15.9333 40.6498 17.8129 41.6705 19.0646L42.6444 18.2705C41.5719 16.9553 39.7032 15.001 37.558 13.3855C35.4397 11.7903 32.9278 10.4302 30.5948 10.5028C28.2908 10.5745 25.7359 11.9432 23.5438 13.5162C21.3269 15.1072 19.3685 16.9902 18.2353 18.2468L19.1685 19.0883C20.2515 17.8873 22.1439 16.0674 24.2764 14.5371C26.4338 12.989 28.7269 11.8181 30.6339 11.7587ZM25.061 18.7864C25.4543 18.7864 25.7732 18.4675 25.7732 18.0742C25.7732 17.6808 25.4543 17.3619 25.061 17.3619C24.6676 17.3619 24.3487 17.6808 24.3487 18.0742C24.3487 18.4675 24.6676 18.7864 25.061 18.7864ZM28.0523 15.8663C28.0523 16.299 27.7334 16.6498 27.3401 16.6498C26.9467 16.6498 26.6278 16.299 26.6278 15.8663C26.6278 15.4336 26.9467 15.0828 27.3401 15.0828C27.7334 15.0828 28.0523 15.4336 28.0523 15.8663ZM31.1146 14.2282C31.508 14.2282 31.8269 13.9093 31.8269 13.5159C31.8269 13.1226 31.508 12.8037 31.1146 12.8037C30.7213 12.8037 30.4024 13.1226 30.4024 13.5159C30.4024 13.9093 30.7213 14.2282 31.1146 14.2282ZM28.8355 18.7864C29.2289 18.7864 29.5478 18.4675 29.5478 18.0742C29.5478 17.6808 29.2289 17.3619 28.8355 17.3619C28.4421 17.3619 28.1233 17.6808 28.1233 18.0742C28.1233 18.4675 28.4421 18.7864 28.8355 18.7864ZM32.6098 15.7951C32.6098 16.1884 32.2909 16.5073 31.8975 16.5073C31.5042 16.5073 31.1853 16.1884 31.1853 15.7951C31.1853 15.4017 31.5042 15.0828 31.8975 15.0828C32.2909 15.0828 32.6098 15.4017 32.6098 15.7951ZM32.6101 19.5054C33.0034 19.5054 33.3223 19.201 33.3223 18.8255C33.3223 18.45 33.0034 18.1456 32.6101 18.1456C32.2167 18.1456 31.8978 18.45 31.8978 18.8255C31.8978 19.201 32.2167 19.5054 32.6101 19.5054ZM35.6726 16.5784C35.6726 16.9717 35.3537 17.2906 34.9604 17.2906C34.567 17.2906 34.2481 16.9717 34.2481 16.5784C34.2481 16.185 34.567 15.8661 34.9604 15.8661C35.3537 15.8661 35.6726 16.185 35.6726 16.5784ZM12.7829 46.3931C12.4656 46.7146 12.2002 47.2611 12.2002 48.1451C12.2002 50.2061 27.8949 50.5808 31.2185 50.4871C34.5421 50.3934 48.0211 49.8314 48.0211 48.1451C48.0211 47.2451 47.5279 46.6564 47.0351 46.3179C46.6817 46.0751 46.4148 45.6711 46.4771 45.2469C47.0214 41.5436 47.6241 33.6202 46.496 25.7219C46.4265 25.2357 46.8218 24.8421 47.2256 24.5624C47.4927 24.3774 47.5974 24.1075 47.5286 23.7916C47.4171 23.2798 47.4181 22.6605 47.6754 22.2042C48.042 21.5541 48.0487 20.7668 47.0979 20.5095C45.872 20.1778 20.6308 20.4333 14.4016 20.4964H14.4014H14.4014L14.401 20.4964C13.5932 20.5046 13.1053 20.5095 13.0311 20.5095C12.3848 20.5095 11.7386 21.2589 12.1078 22.102C12.2401 22.404 12.3103 23.6187 12.244 23.9417C12.2021 24.1458 12.2088 24.3766 12.2925 24.6314C12.33 24.7455 12.3718 24.8468 12.4169 24.9365C12.4899 25.082 12.589 25.2432 12.6934 25.4128L12.6934 25.4128C12.9724 25.8665 13.2884 26.38 13.239 26.8127C12.8089 30.5862 12.4299 37.8788 13.4492 45.0842C13.5182 45.5716 13.1286 46.0427 12.7829 46.3931ZM26.4009 43.6881C26.76 43.3941 28.1666 41.7894 28.825 41.0238C26.8498 38.1758 28.3762 34.7766 29.274 33.9498C29.3304 33.8978 29.3879 33.8425 29.448 33.7848L29.4481 33.7847L29.4486 33.7842L29.4486 33.7842C30.3437 32.9241 31.8035 31.5215 38.7009 32.2961C39.5089 42.4019 35.4688 42.7987 33.5834 42.9531C31.3389 43.1369 30.2615 42.3713 29.7229 41.8507C29.3039 42.31 28.2684 43.4308 27.4783 44.2393C26.4907 45.2499 25.952 44.0556 26.4009 43.6881ZM30.0819 39.9214C29.8126 40.197 29.633 40.4726 29.9024 40.8401C30.2615 41.1157 30.4411 41.0238 30.89 40.6564C31.1145 40.4726 31.8103 39.7606 32.4836 39.0716C33.157 38.3826 33.8079 37.7165 33.9425 37.6246C34.2119 37.4409 34.3017 36.9815 34.0323 36.7059C33.763 36.4303 33.4039 36.5222 32.955 36.9815L30.0819 39.9214ZM27.3922 35.6431C27.0128 37.0088 26.8612 38.7421 27.3863 40.4477C27.2238 40.445 27.0538 40.4355 26.8758 40.4186C25.1346 40.2526 21.4035 39.826 22.1497 28.9622C28.5196 28.1294 29.8677 29.6373 30.6944 30.5619L30.6945 30.5621C30.7502 30.6243 30.8034 30.6838 30.8557 30.7399C30.9836 30.877 31.1254 31.08 31.267 31.3366C29.8435 31.785 29.2169 32.4858 28.7405 33.0187L28.7405 33.0187C28.6762 33.0906 28.6147 33.1594 28.5543 33.2242C28.3225 33.4727 28.0514 33.9084 27.8035 34.4764C27.1671 33.8325 26.3947 33.0202 26.0636 32.5694C25.4832 31.7793 24.6541 32.767 25.2345 33.3595C25.6773 33.8116 26.8089 35.0183 27.3922 35.6431Z"
            fill="white" />
    </symbol>
    <symbol viewBox="0 0 60 60" id="icon_fill_07" xmlns="http://www.w3.org/2000/svg">
        <path
            d="M35.5 41.5L8 38.4302L21 33.314V26.6628L9 25.1279L38 19.5L51 21.0349L45.5 23.0814V27.1744L26 35.8721L27.5 36.8953L45.5 28.7093L52 29.2209L35.5 41.5Z"
            fill="white" />
    </symbol>
    <symbol viewBox="0 0 60 60" id="icon_fill_08" xmlns="http://www.w3.org/2000/svg">
        <path fill-rule="evenodd" clip-rule="evenodd"
            d="M27.9997 22.0032L27.9997 22.0353C28.5881 21.6949 29.2713 21.5 30 21.5C30.7284 21.5 31.4113 21.6947 31.9995 22.0349L31.9995 22.0027C31.9976 17.1402 31.9951 10.9857 29.9996 4.5C28.0041 10.9857 28.0016 17.1408 27.9997 22.0032ZM11.3447 36.8145C15 33.5 21.4735 28.947 26.0759 26.2796C26.3205 27.5177 27.1365 28.5505 28.2377 29.0918C23.6922 31.7121 16.5 35.5 11.3447 36.8145ZM28.2377 29.0918C28.7691 29.3529 29.3679 29.5 30 29.5C30.6323 29.5 31.2303 29.3533 31.7619 29.0921L32.6382 55.4999H27.3623L28.2377 29.0918ZM48.6562 36.8139C43.5 35 36.2787 31.6949 31.7634 29.0913C32.8644 28.5497 33.6801 27.5167 33.9243 26.2784C38.5016 28.9302 45 33.5 48.6562 36.8139ZM30 27.5C31.1046 27.5 32 26.6046 32 25.5C32 24.3954 31.1046 23.5 30 23.5C28.8954 23.5 28 24.3954 28 25.5C28 26.6046 28.8954 27.5 30 27.5Z"
            fill="white" />
    </symbol>
    <symbol viewBox="0 0 60 60" id="icon_fill_09" xmlns="http://www.w3.org/2000/svg">
        <path fill-rule="evenodd" clip-rule="evenodd"
            d="M4.7998 25.4082V45.4998L12.7002 48.66V28.644L4.7998 25.4082ZM21.7998 52.2998L13.7002 49.06V29.0536L21.7998 32.371V52.2998ZM5.54689 23.5529L22.7587 30.6025L53.996 14.9839L38.3998 8.2998L5.54689 23.5529ZM55.1997 15.4998L55.1998 15.5V15.4998L55.1997 15.4998ZM55.1998 16.618L23.7998 32.318V52.1813L55.1998 35.8998V16.618ZM29.5 32.8999V44.2999H30.5V32.8999H29.5ZM37.9004 39.5001V28.1001H38.9004V39.5001H37.9004ZM46.2998 23.2998V34.6998H47.2998V23.2998H46.2998Z"
            fill="white" />
    </symbol>
    <symbol viewBox="0 0 24 24" id="dzen" xmlns="http://www.w3.org/2000/svg">
        <path
            d="M14.8143 14.3143C12.9286 16.26 12.7914 18.6857 12.6286 24C17.5829 24 21.0029 23.9829 22.7686 22.2686C24.4829 20.5029 24.5 16.92 24.5 12.1286C19.1857 12.3 16.76 12.4286 14.8143 14.3143ZM0.5 12.1286C0.5 16.92 0.517143 20.5029 2.23143 22.2686C3.99714 23.9829 7.41714 24 12.3714 24C12.2 18.6857 12.0714 16.26 10.1857 14.3143C8.24 12.4286 5.81429 12.2914 0.5 12.1286ZM12.3714 0C7.42571 0 3.99714 0.0171428 2.23143 1.73143C0.517143 3.49714 0.5 7.08 0.5 11.8714C5.81429 11.7 8.24 11.5714 10.1857 9.68571C12.0714 7.74 12.2086 5.31429 12.3714 0ZM14.8143 9.68571C12.9286 7.74 12.7914 5.31429 12.6286 0C17.5829 0 21.0029 0.0171428 22.7686 1.73143C24.4829 3.49714 24.5 7.08 24.5 11.8714C19.1857 11.7 16.76 11.5714 14.8143 9.68571Z"
            fill="white" />
        <path
            d="M24.5 12.1286V11.8714C19.1857 11.7 16.76 11.5714 14.8143 9.68571C12.9286 7.74 12.7914 5.31429 12.6286 0H12.3714C12.2 5.31429 12.0714 7.74 10.1857 9.68571C8.24 11.5714 5.81429 11.7086 0.5 11.8714V12.1286C5.81429 12.3 8.24 12.4286 10.1857 14.3143C12.0714 16.26 12.2086 18.6857 12.3714 24H12.6286C12.8 18.6857 12.9286 16.26 14.8143 14.3143C16.76 12.4286 19.1857 12.2914 24.5 12.1286Z"
            fill="#0C3551" />

    </symbol>
    <symbol viewBox="0 0 24 24" id="tg" xmlns="http://www.w3.org/2000/svg">
        <path fill-rule="evenodd" clip-rule="evenodd"
            d="M24.5 12C24.5 18.6274 19.1274 24 12.5 24C5.87258 24 0.5 18.6274 0.5 12C0.5 5.37258 5.87258 0 12.5 0C19.1274 0 24.5 5.37258 24.5 12ZM12.9301 8.85895C11.763 9.34442 9.43026 10.3492 5.93201 11.8733C5.36395 12.0992 5.06638 12.3202 5.03929 12.5363C4.99351 12.9015 5.45084 13.0453 6.0736 13.2411C6.15831 13.2678 6.24608 13.2954 6.33606 13.3246C6.94876 13.5238 7.77295 13.7568 8.20141 13.7661C8.59007 13.7745 9.02385 13.6142 9.50276 13.2854C12.7713 11.079 14.4585 9.96383 14.5644 9.93979C14.6392 9.92283 14.7427 9.90151 14.8129 9.96387C14.8831 10.0262 14.8762 10.1443 14.8687 10.176C14.8234 10.3692 13.0282 12.0381 12.0992 12.9018C11.8096 13.1711 11.6042 13.362 11.5622 13.4057C11.4681 13.5034 11.3722 13.5958 11.2801 13.6846C10.7109 14.2334 10.284 14.6448 11.3037 15.3168C11.7938 15.6397 12.1859 15.9068 12.5771 16.1732C13.0043 16.4641 13.4304 16.7543 13.9817 17.1157C14.1222 17.2078 14.2563 17.3034 14.387 17.3966C14.8842 17.751 15.3309 18.0694 15.8827 18.0187C16.2034 17.9892 16.5346 17.6876 16.7028 16.7884C17.1003 14.6632 17.8818 10.0585 18.0623 8.161C18.0782 7.99475 18.0583 7.78199 18.0423 7.6886C18.0263 7.5952 17.9929 7.46213 17.8715 7.36362C17.7277 7.24696 17.5058 7.22236 17.4065 7.22411C16.9551 7.23206 16.2627 7.47284 12.9301 8.85895Z"
            fill="white" />
    </symbol>
    <symbol viewBox="0 0 24 24" id="vk" xmlns="http://www.w3.org/2000/svg">
        <svg width="25" height="24" viewBox="0 0 25 24" fill="none" xmlns="http://www.w3.org/2000/svg">
            <path fill-rule="evenodd" clip-rule="evenodd"
                d="M2.18707 1.68707C0.5 3.37413 0.5 6.0894 0.5 11.52V12.48C0.5 17.9106 0.5 20.6259 2.18707 22.313C3.87413 24 6.5894 24 12.02 24H12.98C18.4106 24 21.1259 24 22.813 22.313C24.5 20.6259 24.5 17.9106 24.5 12.48V11.52C24.5 6.0894 24.5 3.37413 22.813 1.68707C21.1259 0 18.4106 0 12.98 0H12.02C6.5894 0 3.87413 0 2.18707 1.68707ZM4.55006 7.30005C4.68006 13.54 7.80005 17.2901 13.2701 17.2901H13.5801V13.72C15.5901 13.92 17.11 15.3901 17.72 17.2901H20.56C19.78 14.4501 17.7299 12.8801 16.45 12.2801C17.7299 11.5401 19.5299 9.74005 19.9599 7.30005H17.3799C16.8199 9.28005 15.1601 11.08 13.5801 11.25V7.30005H11V14.22C9.4 13.8201 7.38005 11.88 7.29005 7.30005H4.55006Z"
                fill="white" />
        </svg>

    </symbol>
</svg>