<svg width="1729" height="861" viewBox="0 0 1729 861" fill="none" xmlns="http://www.w3.org/2000/svg">
<g opacity="0.5">
<mask id="mask0_670_1187" style="mask-type:alpha" maskUnits="userSpaceOnUse" x="0" y="0" width="1729" height="861">
<path d="M1728.27 860.667L0.000244141 429.494L1728.27 0V860.667Z" fill="#18477F"/>
</mask>
<g mask="url(#mask0_670_1187)">
<path d="M495.969 368.201L249.568 306.481L495.969 245.001V368.201Z" fill="#F2F3F3"/>
<path d="M495.969 121.801L249.568 60.0806L495.969 -1.39941V121.801Z" fill="#F2F3F3"/>
<path d="M1727.97 368.201L1481.57 306.481L1727.97 245.001V368.201Z" fill="#F2F3F3"/>
<path d="M1727.97 121.801L1481.57 60.0809L1727.97 -1.39917V121.801Z" fill="#F2F3F3"/>
<path d="M495.969 737.802L249.568 676.082L495.969 614.602V737.802Z" fill="#F2F3F3"/>
<path d="M1727.97 737.802L1481.57 676.082L1727.97 614.602V737.802Z" fill="#F2F3F3"/>
<path d="M249.568 368.201L3.16797 306.481L249.568 245.001V368.201Z" fill="#F2F3F3"/>
<path d="M249.568 121.801L3.16797 60.0806L249.568 -1.39941V121.801Z" fill="#F2F3F3"/>
<path d="M1481.57 368.201L1235.17 306.481L1481.57 245.001V368.201Z" fill="#F2F3F3"/>
<path d="M1481.57 121.801L1235.17 60.0809L1481.57 -1.39917V121.801Z" fill="#F2F3F3"/>
<path d="M249.568 737.802L3.16797 676.082L249.568 614.602V737.802Z" fill="#F2F3F3"/>
<path d="M1481.57 737.802L1235.17 676.082L1481.57 614.602V737.802Z" fill="#F2F3F3"/>
<path d="M3.16614 368.201L-243.234 306.481L3.16614 245.001V368.201Z" fill="#F2F3F3"/>
<path d="M3.16614 121.801L-243.234 60.0806L3.16614 -1.39941V121.801Z" fill="#F2F3F3"/>
<path d="M1235.17 368.201L988.77 306.481L1235.17 245.001V368.201Z" fill="#F2F3F3"/>
<path d="M1235.17 121.801L988.77 60.0808L1235.17 -1.39929V121.801Z" fill="#F2F3F3"/>
<path d="M3.16614 737.802L-243.234 676.082L3.16614 614.602V737.802Z" fill="#F2F3F3"/>
<path d="M1235.17 737.802L988.77 676.082L1235.17 614.602V737.802Z" fill="#F2F3F3"/>
<path d="M988.768 368.201L742.367 306.481L988.768 245.001V368.201Z" fill="#F2F3F3"/>
<path d="M988.768 121.801L742.367 60.0806L988.768 -1.39941V121.801Z" fill="#F2F3F3"/>
<path d="M988.768 737.802L742.367 676.082L988.768 614.602V737.802Z" fill="#F2F3F3"/>
<path d="M742.369 368.201L495.969 306.481L742.369 245.001V368.201Z" fill="#F2F3F3"/>
<path d="M742.369 121.801L495.969 60.0806L742.369 -1.39941V121.801Z" fill="#F2F3F3"/>
<path d="M742.369 737.802L495.969 676.082L742.369 614.602V737.802Z" fill="#F2F3F3"/>
<path d="M495.969 245.001L249.568 183.281L495.969 121.801V245.001Z" fill="#F2F3F3"/>
<path d="M1727.97 245.001L1481.57 183.281L1727.97 121.801V245.001Z" fill="#F2F3F3"/>
<path d="M495.969 614.602L249.568 552.882L495.969 491.402V614.602Z" fill="#F2F3F3"/>
<path d="M1727.97 614.602L1481.57 552.882L1727.97 491.402V614.602Z" fill="#F2F3F3"/>
<path d="M249.568 245.001L3.16797 183.281L249.568 121.801V245.001Z" fill="#F2F3F3"/>
<path d="M1481.57 245.001L1235.17 183.281L1481.57 121.801V245.001Z" fill="#F2F3F3"/>
<path d="M249.568 614.602L3.16797 552.882L249.568 491.402V614.602Z" fill="#F2F3F3"/>
<path d="M1481.57 614.602L1235.17 552.882L1481.57 491.402V614.602Z" fill="#F2F3F3"/>
<path d="M3.16614 245.001L-243.234 183.281L3.16614 121.801V245.001Z" fill="#F2F3F3"/>
<path d="M1235.17 245.001L988.77 183.281L1235.17 121.801V245.001Z" fill="#F2F3F3"/>
<path d="M3.16614 614.602L-243.234 552.882L3.16614 491.402V614.602Z" fill="#F2F3F3"/>
<path d="M1235.17 614.602L988.77 552.882L1235.17 491.402V614.602Z" fill="#F2F3F3"/>
<path d="M988.768 245.001L742.367 183.281L988.768 121.801V245.001Z" fill="#F2F3F3"/>
<path d="M988.768 614.602L742.367 552.882L988.768 491.402V614.602Z" fill="#F2F3F3"/>
<path d="M742.369 245.001L495.969 183.281L742.369 121.801V245.001Z" fill="#F2F3F3"/>
<path d="M742.369 614.602L495.969 552.882L742.369 491.402V614.602Z" fill="#F2F3F3"/>
<path d="M495.969 491.402L249.568 429.682L495.969 368.202V491.402Z" fill="#F2F3F3"/>
<path d="M1727.97 491.402L1481.57 429.682L1727.97 368.202V491.402Z" fill="#F2F3F3"/>
<path d="M495.969 861.003L249.568 799.282L495.969 737.802V861.003Z" fill="#F2F3F3"/>
<path d="M1727.97 861.003L1481.57 799.282L1727.97 737.802V861.003Z" fill="#F2F3F3"/>
<path d="M249.568 491.402L3.16797 429.682L249.568 368.202V491.402Z" fill="#F2F3F3"/>
<path d="M1481.57 491.402L1235.17 429.682L1481.57 368.202V491.402Z" fill="#F2F3F3"/>
<path d="M249.568 861.003L3.16797 799.282L249.568 737.802V861.003Z" fill="#F2F3F3"/>
<path d="M1481.57 861.003L1235.17 799.282L1481.57 737.802V861.003Z" fill="#F2F3F3"/>
<path d="M3.16614 491.402L-243.234 429.682L3.16614 368.202V491.402Z" fill="#F2F3F3"/>
<path d="M1235.17 491.402L988.77 429.682L1235.17 368.202V491.402Z" fill="#F2F3F3"/>
<path d="M3.16614 861.003L-243.234 799.282L3.16614 737.802V861.003Z" fill="#F2F3F3"/>
<path d="M1235.17 861.003L988.77 799.282L1235.17 737.802V861.003Z" fill="#F2F3F3"/>
<path d="M988.768 491.402L742.367 429.682L988.768 368.202V491.402Z" fill="#F2F3F3"/>
<path d="M988.768 861.003L742.367 799.282L988.768 737.802V861.003Z" fill="#F2F3F3"/>
<path d="M742.369 491.402L495.969 429.682L742.369 368.202V491.402Z" fill="#F2F3F3"/>
<path d="M742.369 861.003L495.969 799.282L742.369 737.802V861.003Z" fill="#F2F3F3"/>
</g>
</g>
</svg>
