<svg width="1729" height="861" viewBox="0 0 1729 861" fill="none" xmlns="http://www.w3.org/2000/svg">
<g opacity="0.5">
<mask id="mask0_675_1052" style="mask-type:alpha" maskUnits="userSpaceOnUse" x="0" y="0" width="1729" height="861">
<path d="M0.729736 860.667L1729 429.494L0.729736 0V860.667Z" fill="#18477F"/>
</mask>
<g mask="url(#mask0_675_1052)">
<path d="M1233.03 368.201L1479.43 306.481L1233.03 245.001V368.201Z" fill="#F2F3F3"/>
<path d="M1233.03 121.801L1479.43 60.0806L1233.03 -1.39941V121.801Z" fill="#F2F3F3"/>
<path d="M1.02966 368.201L247.43 306.481L1.02966 245.001V368.201Z" fill="#F2F3F3"/>
<path d="M1.02966 121.801L247.43 60.0807L1.02966 -1.39941V121.801Z" fill="#F2F3F3"/>
<path d="M1233.03 737.802L1479.43 676.082L1233.03 614.602V737.802Z" fill="#F2F3F3"/>
<path d="M1.02966 737.802L247.43 676.082L1.02966 614.602V737.802Z" fill="#F2F3F3"/>
<path d="M1479.43 368.201L1725.83 306.481L1479.43 245.001V368.201Z" fill="#F2F3F3"/>
<path d="M1479.43 121.801L1725.83 60.0806L1479.43 -1.39941V121.801Z" fill="#F2F3F3"/>
<path d="M247.43 368.201L493.83 306.481L247.43 245.001V368.201Z" fill="#F2F3F3"/>
<path d="M247.43 121.801L493.83 60.0807L247.43 -1.39941V121.801Z" fill="#F2F3F3"/>
<path d="M1479.43 737.802L1725.83 676.082L1479.43 614.602V737.802Z" fill="#F2F3F3"/>
<path d="M247.43 737.802L493.83 676.082L247.43 614.602V737.802Z" fill="#F2F3F3"/>
<path d="M1725.83 368.201L1972.23 306.481L1725.83 245.001V368.201Z" fill="#F2F3F3"/>
<path d="M1725.83 121.801L1972.23 60.0806L1725.83 -1.39941V121.801Z" fill="#F2F3F3"/>
<path d="M493.83 368.201L740.23 306.481L493.83 245.001V368.201Z" fill="#F2F3F3"/>
<path d="M493.83 121.801L740.23 60.0807L493.83 -1.39941V121.801Z" fill="#F2F3F3"/>
<path d="M1725.83 737.802L1972.23 676.082L1725.83 614.602V737.802Z" fill="#F2F3F3"/>
<path d="M493.83 737.802L740.23 676.082L493.83 614.602V737.802Z" fill="#F2F3F3"/>
<path d="M740.232 368.201L986.633 306.481L740.232 245.001V368.201Z" fill="#F2F3F3"/>
<path d="M740.232 121.801L986.633 60.0806L740.232 -1.39941V121.801Z" fill="#F2F3F3"/>
<path d="M740.232 737.802L986.633 676.082L740.232 614.602V737.802Z" fill="#F2F3F3"/>
<path d="M986.631 368.201L1233.03 306.481L986.631 245.001V368.201Z" fill="#F2F3F3"/>
<path d="M986.631 121.801L1233.03 60.0806L986.631 -1.39941V121.801Z" fill="#F2F3F3"/>
<path d="M986.631 737.802L1233.03 676.082L986.631 614.602V737.802Z" fill="#F2F3F3"/>
<path d="M1233.03 245.001L1479.43 183.281L1233.03 121.801V245.001Z" fill="#F2F3F3"/>
<path d="M1.02966 245.001L247.43 183.281L1.02966 121.801V245.001Z" fill="#F2F3F3"/>
<path d="M1233.03 614.602L1479.43 552.882L1233.03 491.402V614.602Z" fill="#F2F3F3"/>
<path d="M1.02966 614.602L247.43 552.882L1.02966 491.402V614.602Z" fill="#F2F3F3"/>
<path d="M1479.43 245.001L1725.83 183.281L1479.43 121.801V245.001Z" fill="#F2F3F3"/>
<path d="M247.43 245.001L493.83 183.281L247.43 121.801V245.001Z" fill="#F2F3F3"/>
<path d="M1479.43 614.602L1725.83 552.882L1479.43 491.402V614.602Z" fill="#F2F3F3"/>
<path d="M247.43 614.602L493.83 552.882L247.43 491.402V614.602Z" fill="#F2F3F3"/>
<path d="M1725.83 245.001L1972.23 183.281L1725.83 121.801V245.001Z" fill="#F2F3F3"/>
<path d="M493.83 245.001L740.23 183.281L493.83 121.801V245.001Z" fill="#F2F3F3"/>
<path d="M1725.83 614.602L1972.23 552.882L1725.83 491.402V614.602Z" fill="#F2F3F3"/>
<path d="M493.83 614.602L740.23 552.882L493.83 491.402V614.602Z" fill="#F2F3F3"/>
<path d="M740.232 245.001L986.633 183.281L740.232 121.801V245.001Z" fill="#F2F3F3"/>
<path d="M740.232 614.602L986.633 552.882L740.232 491.402V614.602Z" fill="#F2F3F3"/>
<path d="M986.631 245.001L1233.03 183.281L986.631 121.801V245.001Z" fill="#F2F3F3"/>
<path d="M986.631 614.602L1233.03 552.882L986.631 491.402V614.602Z" fill="#F2F3F3"/>
<path d="M1233.03 491.402L1479.43 429.682L1233.03 368.202V491.402Z" fill="#F2F3F3"/>
<path d="M1.02966 491.402L247.43 429.682L1.02966 368.202V491.402Z" fill="#F2F3F3"/>
<path d="M1233.03 861.003L1479.43 799.282L1233.03 737.802V861.003Z" fill="#F2F3F3"/>
<path d="M1.02966 861.003L247.43 799.282L1.02966 737.802V861.003Z" fill="#F2F3F3"/>
<path d="M1479.43 491.402L1725.83 429.682L1479.43 368.202V491.402Z" fill="#F2F3F3"/>
<path d="M247.43 491.402L493.83 429.682L247.43 368.202V491.402Z" fill="#F2F3F3"/>
<path d="M1479.43 861.003L1725.83 799.282L1479.43 737.802V861.003Z" fill="#F2F3F3"/>
<path d="M247.43 861.003L493.83 799.282L247.43 737.802V861.003Z" fill="#F2F3F3"/>
<path d="M1725.83 491.402L1972.23 429.682L1725.83 368.202V491.402Z" fill="#F2F3F3"/>
<path d="M493.83 491.402L740.23 429.682L493.83 368.202V491.402Z" fill="#F2F3F3"/>
<path d="M1725.83 861.003L1972.23 799.282L1725.83 737.802V861.003Z" fill="#F2F3F3"/>
<path d="M493.83 861.003L740.23 799.282L493.83 737.802V861.003Z" fill="#F2F3F3"/>
<path d="M740.232 491.402L986.633 429.682L740.232 368.202V491.402Z" fill="#F2F3F3"/>
<path d="M740.232 861.003L986.633 799.282L740.232 737.802V861.003Z" fill="#F2F3F3"/>
<path d="M986.631 491.402L1233.03 429.682L986.631 368.202V491.402Z" fill="#F2F3F3"/>
<path d="M986.631 861.003L1233.03 799.282L986.631 737.802V861.003Z" fill="#F2F3F3"/>
</g>
</g>
</svg>
