<svg width="1441" height="183" viewBox="0 0 1441 183" fill="none" xmlns="http://www.w3.org/2000/svg"  preserveAspectRatio="none">
<path fill-rule="evenodd" clip-rule="evenodd" d="M696.69 28.3082C702.076 30.2174 709.395 31.8021 720.5 31.8021C738.411 31.8021 746.091 27.0481 757.436 20.0251L757.869 19.7569C772.191 10.8933 790.055 0.105469 823.127 0.105469C853.913 0.105469 870.916 10.7127 884.223 19.0141L884.224 19.0151C889.868 22.5362 895.546 26.0742 901.845 28.3015C907.258 30.2153 914.609 31.8021 925.755 31.8021C943.588 31.8021 951.227 27.0614 962.544 20.0382L962.974 19.7719C977.262 10.9071 995.103 0.105469 1028.13 0.105469C1058.87 0.105469 1075.85 10.7264 1089.13 19.0278C1094.75 22.5456 1100.41 26.0819 1106.69 28.3082C1112.08 30.2174 1119.4 31.8021 1130.5 31.8021C1148.41 31.8021 1156.09 27.0481 1167.44 20.0251L1167.87 19.7569C1182.19 10.8933 1200.05 0.105469 1233.13 0.105469C1263.91 0.105469 1280.92 10.7127 1294.22 19.0141C1299.87 22.5355 1305.55 26.074 1311.85 28.3015C1317.26 30.2153 1324.61 31.8021 1335.75 31.8021C1353.59 31.8021 1361.23 27.0614 1372.54 20.0382L1372.97 19.7719C1387.26 10.9071 1405.1 0.105469 1438.13 0.105469C1468.87 0.105469 1485.85 10.7264 1499.13 19.0278C1504.75 22.5456 1510.41 26.0819 1516.69 28.3082C1522.08 30.2174 1529.4 31.8021 1540.5 31.8021V182.105H720.5H-99.5V31.8021C-81.5893 31.8021 -73.9094 27.0481 -62.5642 20.0251L-62.131 19.7569C-47.8087 10.8933 -29.9451 0.105469 3.12733 0.105469C33.913 0.105469 50.9159 10.7127 64.2226 19.0141L64.2242 19.0151C69.8681 22.5362 75.5459 26.0742 81.8454 28.3015C87.2581 30.2153 94.6091 31.8021 105.755 31.8021C123.588 31.8021 131.227 27.0614 142.544 20.0382L142.974 19.7719C157.262 10.9071 175.103 0.105469 208.127 0.105469C238.87 0.105469 255.853 10.7264 269.126 19.0278C274.751 22.5456 280.409 26.0819 286.69 28.3082C292.076 30.2174 299.395 31.8021 310.5 31.8021C328.411 31.8021 336.091 27.0481 347.436 20.0251L347.869 19.7569C362.191 10.8933 380.055 0.105469 413.127 0.105469C443.913 0.105469 460.916 10.7127 474.223 19.0141C479.867 22.5355 485.545 26.074 491.845 28.3015C497.258 30.2153 504.609 31.8021 515.755 31.8021C533.588 31.8021 541.227 27.0614 552.544 20.0382L552.974 19.7719C567.262 10.9071 585.103 0.105469 618.127 0.105469C648.87 0.105469 665.853 10.7264 679.126 19.0278C684.751 22.5456 690.409 26.0819 696.69 28.3082Z" fill="#4E7FB5"/>
</svg>
